<svg width="18" height="18" viewBox="0 0 18 18" fill="none" xmlns="http://www.w3.org/2000/svg">
<path d="M13.839 12.3356C15.0112 12.9244 16.0162 13.8694 16.7497 15.0511C16.895 15.2851 16.9677 15.4021 16.9928 15.5642C17.0438 15.8934 16.8186 16.2982 16.512 16.4285C16.3611 16.4926 16.1913 16.4926 15.8518 16.4926M12.2287 8.8697C13.4217 8.27683 14.2415 7.04573 14.2415 5.62316C14.2415 4.20057 13.4217 2.96948 12.2287 2.37661M10.6184 5.62316C10.6184 7.62417 8.99623 9.24631 6.99521 9.24631C4.9942 9.24631 3.37206 7.62417 3.37206 5.62316C3.37206 3.62214 4.9942 2 6.99521 2C8.99623 2 10.6184 3.62214 10.6184 5.62316ZM1.40689 14.8327C2.69053 12.9053 4.71615 11.6617 6.99521 11.6617C9.27428 11.6617 11.2999 12.9053 12.5835 14.8327C12.8648 15.2549 13.0054 15.466 12.9892 15.7357C12.9766 15.9457 12.8389 16.2028 12.6711 16.3297C12.4556 16.4926 12.1593 16.4926 11.5665 16.4926H2.42389C1.83115 16.4926 1.53478 16.4926 1.31929 16.3297C1.15151 16.2028 1.01386 15.9457 1.00126 15.7357C0.985068 15.466 1.12567 15.2549 1.40689 14.8327Z" stroke="black" stroke-width="1.5" stroke-linecap="round" stroke-linejoin="round"/>
</svg>
