<svg width="18" height="18" viewBox="0 0 18 18" fill="none" xmlns="http://www.w3.org/2000/svg">
<path d="M1.3473 9.86102H6.18059M11.8194 9.86102H16.6527M9 5.02774V16.3054M9 5.02774C10.1122 5.02774 11.0139 4.1261 11.0139 3.01387M9 5.02774C7.88777 5.02774 6.98613 4.1261 6.98613 3.01387M2.55562 16.3054L15.4444 16.3054M2.55562 3.01387L6.98613 3.01387M6.98613 3.01387C6.98613 1.90164 7.88777 1 9 1C10.1122 1 11.0139 1.90164 11.0139 3.01387M11.0139 3.01387L15.4444 3.01387M6.48705 10.9375C6.16427 12.1734 5.0674 13.0832 3.76394 13.0832C2.46049 13.0832 1.36362 12.1734 1.04084 10.9375C1.01447 10.8365 1.00128 10.786 1.00001 10.5843C0.99923 10.4606 1.04519 10.1755 1.08479 10.0583C1.14938 9.86717 1.21931 9.75929 1.35915 9.54353L3.76394 5.83328L6.16874 9.54353C6.30858 9.75929 6.3785 9.86717 6.4431 10.0583C6.4827 10.1755 6.52866 10.4606 6.52788 10.5843C6.52661 10.786 6.51342 10.8365 6.48705 10.9375ZM16.9592 10.9375C16.6364 12.1734 15.5395 13.0832 14.2361 13.0832C12.9326 13.0832 11.8357 12.1734 11.513 10.9375C11.4866 10.8365 11.4734 10.786 11.4721 10.5843C11.4713 10.4606 11.5173 10.1755 11.5569 10.0583C11.6215 9.86717 11.6914 9.75929 11.8313 9.54353L14.2361 5.83328L16.6408 9.54353C16.7807 9.75929 16.8506 9.86717 16.9152 10.0583C16.9548 10.1755 17.0008 10.4606 17 10.5843C16.9987 10.786 16.9855 10.8365 16.9592 10.9375Z" stroke="black" stroke-width="1.5" stroke-linecap="round" stroke-linejoin="round"/>
</svg>
