<svg width="18" height="18" viewBox="0 0 18 18" fill="none" xmlns="http://www.w3.org/2000/svg">
<path d="M15.7368 16.3158V10.4211M9 16.3158V7.89474M2.26316 16.3158L2.26316 12.9474M10.1846 3.70737L14.5369 5.33951M7.98844 4.02183L3.27388 7.55775M16.63 4.89629C17.1233 5.38958 17.1233 6.18937 16.63 6.68266C16.1367 7.17596 15.3369 7.17596 14.8437 6.68266C14.3504 6.18937 14.3504 5.38958 14.8437 4.89629C15.3369 4.40299 16.1367 4.40299 16.63 4.89629ZM3.15635 7.4226C3.64964 7.9159 3.64964 8.71568 3.15635 9.20898C2.66305 9.70227 1.86326 9.70227 1.36997 9.20898C0.876677 8.71568 0.876677 7.9159 1.36997 7.4226C1.86326 6.92931 2.66305 6.92931 3.15635 7.4226ZM9.89319 2.36997C10.3865 2.86326 10.3865 3.66305 9.89319 4.15635C9.39989 4.64964 8.60011 4.64964 8.10681 4.15635C7.61352 3.66305 7.61352 2.86326 8.10681 2.36997C8.60011 1.87668 9.39989 1.87668 9.89319 2.36997Z" stroke="black" stroke-width="1.5" stroke-linecap="round" stroke-linejoin="round"/>
</svg>
