<svg width="13" height="11" viewBox="0 0 13 11" fill="none" xmlns="http://www.w3.org/2000/svg">
<path d="M0.399414 2.19586L5.28868 5.61834C5.6846 5.89549 5.88256 6.03406 6.09789 6.08773C6.28809 6.13515 6.48702 6.13515 6.67722 6.08773C6.89255 6.03406 7.09051 5.89549 7.48643 5.61835L12.3757 2.19586M3.27372 9.98044H9.50139C10.5075 9.98044 11.0105 9.98044 11.3948 9.78464C11.7328 9.61241 12.0077 9.33759 12.1799 8.99957C12.3757 8.61529 12.3757 8.11224 12.3757 7.10613V3.27372C12.3757 2.26762 12.3757 1.76457 12.1799 1.38029C12.0077 1.04227 11.7328 0.767446 11.3948 0.595215C11.0105 0.399414 10.5075 0.399414 9.50139 0.399414H3.27372C2.26762 0.399414 1.76457 0.399414 1.38029 0.595215C1.04227 0.767446 0.767446 1.04227 0.595215 1.38029C0.399414 1.76457 0.399414 2.26762 0.399414 3.27372V7.10613C0.399414 8.11224 0.399414 8.61529 0.595215 8.99957C0.767446 9.33759 1.04227 9.61241 1.38029 9.78464C1.76457 9.98044 2.26762 9.98044 3.27372 9.98044Z" stroke="#8C8C8C" stroke-width="0.798419" stroke-linecap="round" stroke-linejoin="round"/>
</svg>
