<svg width="17" height="24" viewBox="0 0 17 24" fill="none" xmlns="http://www.w3.org/2000/svg">
<path d="M4.74037 23.9999C2.74253 24.0153 0.952911 22.7669 0.277692 20.8865C-0.397527 19.0062 0.189065 16.9044 1.74045 15.6455C0.640077 14.7549 0.000764475 13.415 0.000764475 11.9994C0.000764475 10.5838 0.640077 9.2439 1.74045 8.35331C0.188568 7.09482 -0.398375 4.99294 0.27697 3.11251C0.952316 1.23208 2.74241 -0.0161004 4.74037 0.000156938H12.0722C14.0702 -0.0161004 15.8602 1.23208 16.5356 3.11251C17.2109 4.99294 16.624 7.09482 15.0721 8.35331C16.6235 9.61221 17.2101 11.7139 16.5349 13.5943C15.8597 15.4746 14.07 16.7231 12.0722 16.7075C11.1494 16.7086 10.2464 16.44 9.47426 15.9347V19.2946C9.46301 21.8998 7.34552 24.0044 4.74037 23.9999ZM4.71397 16.7087C3.29265 16.7311 2.15647 17.8976 2.17138 19.319C2.18629 20.7404 3.34668 21.8828 4.76816 21.8754C6.18964 21.868 7.33813 20.7137 7.33831 19.2922V16.7087H4.71277H4.71397ZM12.0734 9.41648C10.6483 9.42376 9.49822 10.5837 9.50305 12.0088C9.50792 13.4339 10.6658 14.5859 12.091 14.5835C13.5161 14.5811 14.6701 13.4251 14.6701 12C14.6648 10.5697 13.5025 9.41382 12.0722 9.41648H12.0734ZM4.74157 9.41644C3.81857 9.41155 2.96304 9.89941 2.49727 10.6963C2.03149 11.4932 2.02623 12.478 2.48347 13.2798C2.9407 14.0816 3.79097 14.5786 4.71397 14.5836H7.33831V9.41644H4.74157ZM9.47426 2.12426V7.29256H12.071C13.46 7.29901 14.606 6.20706 14.6665 4.8194V5.34138V4.7078C14.6606 3.27921 13.5008 2.12426 12.0722 2.12426H9.47426ZM4.73917 2.12426C3.81617 2.12426 2.96327 2.61668 2.50177 3.41603C2.04026 4.21538 2.04026 5.20022 2.50177 5.99957C2.96327 6.79891 3.81617 7.29133 4.73917 7.29133H7.33831V2.12426H4.73917Z" fill="#8C8C8C"/>
</svg>
