<svg width="15" height="17" viewBox="0 0 15 17" fill="none" xmlns="http://www.w3.org/2000/svg">
<path d="M3.3 8.05556V10.2778M3.3 8.05556V2.72222C3.3 1.98584 3.9268 1.38889 4.7 1.38889C5.4732 1.38889 6.1 1.98584 6.1 2.72222M3.3 8.05556C3.3 7.31918 2.6732 6.72222 1.9 6.72222C1.1268 6.72222 0.5 7.31918 0.5 8.05556V9.83333C0.5 13.5152 3.63401 16.5 7.5 16.5C11.366 16.5 14.5 13.5152 14.5 9.83333V5.38889C14.5 4.65251 13.8732 4.05556 13.1 4.05556C12.3268 4.05556 11.7 4.65251 11.7 5.38889M6.1 2.72222V7.61111M6.1 2.72222V1.83333C6.1 1.09695 6.7268 0.5 7.5 0.5C8.2732 0.5 8.9 1.09695 8.9 1.83333V2.72222M8.9 2.72222V7.61111M8.9 2.72222C8.9 1.98584 9.5268 1.38889 10.3 1.38889C11.0732 1.38889 11.7 1.98584 11.7 2.72222V5.38889M11.7 5.38889V7.61111" stroke="#909090" stroke-linecap="round" stroke-linejoin="round"/>
</svg>
