<svg preserveAspectRatio="none" width="100%" height="100%" overflow="visible" style="display: block;" viewBox="0 0 42 42" fill="none" xmlns="http://www.w3.org/2000/svg">
<g id="Email">
<rect x="1.46772" y="1.46772" width="39.3887" height="39.3887" rx="19.6943" fill="var(--fill-0, white)"/>
<rect x="1.46772" y="1.46772" width="39.3887" height="39.3887" rx="19.6943" stroke="var(--stroke-0, #F2F2F2)" stroke-width="1.06456"/>
<path id="Icon" d="M15.1738 18.168L20.0631 21.5905C20.459 21.8677 20.657 22.0062 20.8723 22.0599C21.0625 22.1073 21.2614 22.1073 21.4516 22.0599C21.6669 22.0062 21.8649 21.8677 22.2608 21.5905L27.1501 18.168M18.0481 25.9526H24.2758C25.2819 25.9526 25.7849 25.9526 26.1692 25.7568C26.5072 25.5846 26.7821 25.3098 26.9543 24.9717C27.1501 24.5875 27.1501 24.0844 27.1501 23.0783V19.2459C27.1501 18.2398 27.1501 17.7367 26.9543 17.3525C26.7821 17.0144 26.5072 16.7396 26.1692 16.5674C25.7849 16.3716 25.2819 16.3716 24.2758 16.3716H18.0481C17.042 16.3716 16.539 16.3716 16.1547 16.5674C15.8167 16.7396 15.5418 17.0144 15.3696 17.3525C15.1738 17.7367 15.1738 18.2398 15.1738 19.2459V23.0783C15.1738 24.0844 15.1738 24.5875 15.3696 24.9717C15.5418 25.3098 15.8167 25.5846 16.1547 25.7568C16.539 25.9526 17.042 25.9526 18.0481 25.9526Z" stroke="var(--stroke-0, #8C8C8C)" stroke-width="0.798419" stroke-linecap="round" stroke-linejoin="round"/>
</g>
</svg>
