<svg width="27" height="27" viewBox="0 0 27 27" fill="none" xmlns="http://www.w3.org/2000/svg">
<path d="M15.4199 7.125C15.9177 7.125 16.3139 7.12435 16.6328 7.15039C16.9561 7.17681 17.2332 7.23284 17.4873 7.36231C17.8966 7.57083 18.23 7.90325 18.4385 8.3125C18.5679 8.56661 18.623 8.84378 18.6494 9.16699C18.6755 9.48593 18.6748 9.88208 18.6748 10.3799V16.6201C18.6748 17.1179 18.6755 17.5141 18.6494 17.833C18.623 18.1562 18.5679 18.4334 18.4385 18.6875C18.23 19.0968 17.8966 19.4292 17.4873 19.6377C17.2332 19.7672 16.9561 19.8232 16.6328 19.8496C16.3139 19.8757 15.9177 19.875 15.4199 19.875H11.5801C11.0823 19.875 10.6861 19.8757 10.3672 19.8496C10.0439 19.8232 9.76684 19.7672 9.5127 19.6377C9.10357 19.4292 8.77101 19.0966 8.5625 18.6875C8.43301 18.4334 8.37701 18.1563 8.35059 17.833C8.32453 17.5141 8.3252 17.1179 8.3252 16.6201V10.3799C8.3252 9.88208 8.32453 9.48593 8.35059 9.16699C8.37701 8.84374 8.43301 8.56664 8.5625 8.3125C8.77101 7.90337 9.10357 7.57081 9.5127 7.36231C9.76684 7.23281 10.0439 7.17682 10.3672 7.15039C10.6861 7.12433 11.0823 7.125 11.5801 7.125H15.4199ZM11.1006 14.9248C10.8935 14.9248 10.7257 15.0928 10.7256 15.2998C10.7256 15.5069 10.8935 15.6748 11.1006 15.6748H12.3008C12.5078 15.6747 12.6758 15.5069 12.6758 15.2998C12.6757 15.0929 12.5077 14.9249 12.3008 14.9248H11.1006ZM11.1006 12.5254C10.8935 12.5254 10.7256 12.6933 10.7256 12.9004C10.7258 13.1073 10.8936 13.2754 11.1006 13.2754H14.7002C14.9072 13.2754 15.075 13.1073 15.0752 12.9004C15.0752 12.6933 14.9073 12.5254 14.7002 12.5254H11.1006ZM11.1006 10.125C10.8935 10.125 10.7256 10.2929 10.7256 10.5C10.7256 10.7071 10.8935 10.875 11.1006 10.875H15.9004C16.1075 10.875 16.2754 10.7071 16.2754 10.5C16.2754 10.2929 16.1075 10.125 15.9004 10.125H11.1006Z" fill="white"/>
</svg>
