<svg width="27" height="27" viewBox="0 0 27 27" fill="none" xmlns="http://www.w3.org/2000/svg">
<path d="M7.5 12.4196C7.5 11.7475 7.5 11.4115 7.63079 11.1548C7.74584 10.929 7.92942 10.7454 8.15521 10.6304C8.41191 10.4996 8.74794 10.4996 9.42 10.4996L17.58 10.4996C18.2521 10.4996 18.5881 10.4996 18.8448 10.6304C19.0706 10.7454 19.2542 10.929 19.3692 11.1548C19.5 11.4115 19.5 11.7475 19.5 12.4196L19.5 16.9796C19.5 17.6517 19.5 17.9877 19.3692 18.2444C19.2542 18.4702 19.0706 18.6538 18.8448 18.7688C18.5881 18.8996 18.2521 18.8996 17.58 18.8996L9.42 18.8996C8.74794 18.8996 8.41191 18.8996 8.15521 18.7688C7.92942 18.6538 7.74584 18.4702 7.63079 18.2444C7.5 17.9877 7.5 17.6517 7.5 16.9796L7.5 12.4196Z" fill="white"/>
<path d="M15.9 10.4996C15.9 9.94163 15.9 9.66263 15.8387 9.43374C15.6722 8.81257 15.187 8.32738 14.5659 8.16094C14.337 8.09961 14.058 8.09961 13.5 8.09961C12.942 8.09961 12.663 8.09961 12.4341 8.16094C11.813 8.32738 11.3278 8.81257 11.1613 9.43374C11.1 9.66263 11.1 9.94163 11.1 10.4996M9.42 18.8996L17.58 18.8996C18.2521 18.8996 18.5881 18.8996 18.8448 18.7688C19.0706 18.6538 19.2542 18.4702 19.3692 18.2444C19.5 17.9877 19.5 17.6517 19.5 16.9796L19.5 12.4196C19.5 11.7475 19.5 11.4115 19.3692 11.1548C19.2542 10.929 19.0706 10.7454 18.8448 10.6304C18.5881 10.4996 18.2521 10.4996 17.58 10.4996L9.42 10.4996C8.74794 10.4996 8.41191 10.4996 8.15521 10.6304C7.92942 10.7454 7.74584 10.929 7.63079 11.1548C7.5 11.4115 7.5 11.7475 7.5 12.4196L7.5 16.9796C7.5 17.6517 7.5 17.9877 7.63079 18.2444C7.74584 18.4702 7.92942 18.6538 8.15521 18.7688C8.41191 18.8996 8.74794 18.8996 9.42 18.8996Z" stroke="white" stroke-width="0.75" stroke-linecap="round" stroke-linejoin="round"/>
</svg>
