<svg width="27" height="27" viewBox="0 0 27 27" fill="none" xmlns="http://www.w3.org/2000/svg">
<path d="M13.5002 15.5C11.3868 15.5 9.50742 16.5204 8.31089 18.104C8.05336 18.4448 7.9246 18.6152 7.92881 18.8455C7.93207 19.0235 8.0438 19.2479 8.1838 19.3578C8.36502 19.5 8.61614 19.5 9.11838 19.5L17.8821 19.5C18.3843 19.5 18.6354 19.5 18.8166 19.3578C18.9567 19.2479 19.0684 19.0235 19.0716 18.8455C19.0759 18.6152 18.9471 18.4448 18.6896 18.104C17.493 16.5204 15.6136 15.5 13.5002 15.5Z" fill="white"/>
<path d="M13.5002 13.5C15.1571 13.5 16.5002 12.1569 16.5002 10.5C16.5002 8.84315 15.1571 7.5 13.5002 7.5C11.8434 7.5 10.5002 8.84315 10.5002 10.5C10.5002 12.1569 11.8434 13.5 13.5002 13.5Z" fill="white"/>
<path d="M13.5002 15.5C11.3868 15.5 9.50742 16.5204 8.31089 18.104C8.05336 18.4448 7.9246 18.6152 7.92881 18.8455C7.93207 19.0235 8.0438 19.2479 8.1838 19.3578C8.36502 19.5 8.61614 19.5 9.11838 19.5L17.8821 19.5C18.3843 19.5 18.6354 19.5 18.8166 19.3578C18.9567 19.2479 19.0684 19.0235 19.0716 18.8455C19.0759 18.6152 18.9471 18.4448 18.6896 18.104C17.493 16.5204 15.6136 15.5 13.5002 15.5Z" stroke="white" stroke-width="0.75" stroke-linecap="round" stroke-linejoin="round"/>
<path d="M13.5002 13.5C15.1571 13.5 16.5002 12.1569 16.5002 10.5C16.5002 8.84315 15.1571 7.5 13.5002 7.5C11.8434 7.5 10.5002 8.84315 10.5002 10.5C10.5002 12.1569 11.8434 13.5 13.5002 13.5Z" stroke="white" stroke-width="0.75" stroke-linecap="round" stroke-linejoin="round"/>
</svg>
