<svg width="151" height="48" viewBox="0 0 151 48" fill="none" xmlns="http://www.w3.org/2000/svg">
<path d="M6.24684 0C6.60996 0 6.89747 0.297306 6.9693 0.653246C7.2725 2.1558 8.60047 3.28711 10.1924 3.28711C11.7842 3.28698 13.1115 2.15571 13.4145 0.65325C13.4863 0.297304 13.7738 0 14.1369 0H19.3972C19.7603 0 20.0479 0.297306 20.1197 0.653246C20.4229 2.15579 21.7509 3.2871 23.3428 3.28711C25.1017 3.28711 26.5378 1.90596 26.626 0.168945C26.6287 0.0748601 26.7058 0 26.7999 0H32.5486C32.9117 0 33.1992 0.297304 33.271 0.65325C33.5741 2.1557 34.9014 3.28696 36.4932 3.28711C38.2521 3.28711 39.6892 1.90598 39.7773 0.168945C39.7795 0.0750143 39.8563 0 39.9502 0H45.699C46.0621 0 46.3496 0.297306 46.4214 0.653246C46.7246 2.1558 48.0526 3.28711 49.6445 3.28711C51.2363 3.28694 52.5636 2.15568 52.8667 0.653249C52.9385 0.297304 53.226 0 53.5891 0H58.8494C59.2125 0 59.5 0.297306 59.5718 0.653246C59.875 2.1558 61.203 3.28711 62.7949 3.28711C64.5538 3.28707 65.99 1.90594 66.0781 0.168945C66.0808 0.0748601 66.1579 0 66.252 0H72.0008C72.3639 0 72.6514 0.297304 72.7232 0.65325C73.0262 2.15573 74.3535 3.287 75.9453 3.28711C77.7042 3.28711 79.1404 1.90596 79.2285 0.168945C79.2312 0.0748601 79.3083 0 79.4024 0H85.1511C85.5143 0 85.8018 0.297306 85.8736 0.653246C86.1768 2.1558 87.5048 3.28711 89.0967 3.28711C90.6884 3.28689 92.0157 2.15565 92.3188 0.653249C92.3906 0.297304 92.6781 0 93.0412 0H98.3015C98.6646 0 98.9522 0.297306 99.024 0.653246C99.3272 2.1558 100.655 3.28711 102.247 3.28711C103.839 3.28703 105.166 2.15574 105.469 0.65325C105.541 0.297303 105.829 0 106.192 0H111.453C111.816 0 112.104 0.297303 112.175 0.653251C112.478 2.15576 113.806 3.28705 115.397 3.28711C117.156 3.28711 118.593 1.90596 118.681 0.168945C118.683 0.0748601 118.76 0 118.855 0H124.603C124.966 0 125.254 0.297304 125.326 0.653249C125.629 2.15567 126.956 3.28692 128.548 3.28711C130.307 3.28711 131.744 1.90598 131.832 0.168945C131.834 0.0750143 131.911 0 132.005 0H137.754C138.117 0 138.404 0.297306 138.476 0.653246C138.779 2.1558 140.107 3.28711 141.699 3.28711C143.291 3.28698 144.618 2.15571 144.921 0.65325C144.993 0.297304 145.281 0 145.644 0H149.672C150.035 0 150.329 0.294388 150.329 0.657534V47.3425C150.329 47.7056 150.035 48 149.672 48H145.644C145.281 48 144.993 47.7026 144.921 47.3467C144.619 45.8439 143.291 44.712 141.699 44.7119C140.107 44.7119 138.779 45.8438 138.476 47.3467C138.404 47.7026 138.117 48 137.754 48H132.493C132.13 48 131.843 47.7026 131.771 47.3467C131.468 45.8438 130.14 44.7119 128.548 44.7119C126.956 44.7121 125.629 45.844 125.326 47.3467C125.254 47.7026 124.966 48 124.603 48H119.343C118.98 48 118.692 47.7026 118.621 47.3467C118.318 45.8438 116.989 44.7119 115.397 44.7119C113.805 44.712 112.478 45.8439 112.175 47.3467C112.103 47.7026 111.816 48 111.453 48H106.192C105.829 48 105.541 47.7026 105.469 47.3467C105.166 45.8439 103.839 44.712 102.247 44.7119C100.655 44.7119 99.327 45.8438 99.0239 47.3467C98.9521 47.7026 98.6646 48 98.3015 48H93.0413C92.6782 48 92.3906 47.7026 92.3189 47.3467C92.0159 45.844 90.6885 44.7121 89.0967 44.7119C87.5046 44.7119 86.1766 45.8438 85.8735 47.3467C85.8017 47.7026 85.5142 48 85.1511 48H79.8909C79.5278 48 79.2403 47.7026 79.1685 47.3467C78.8654 45.8438 77.5373 44.7119 75.9453 44.7119C74.3534 44.712 73.026 45.8439 72.7231 47.3467C72.6513 47.7026 72.3638 48 72.0007 48H66.7405C66.3774 48 66.0899 47.7026 66.0181 47.3467C65.715 45.8439 64.3869 44.7119 62.7949 44.7119C61.2029 44.7119 59.8748 45.8438 59.5718 47.3467C59.5 47.7026 59.2124 48 58.8493 48H53.5892C53.226 48 52.9385 47.7026 52.8667 47.3467C52.5638 45.8439 51.2364 44.7121 49.6445 44.7119C48.0525 44.7119 46.7244 45.8438 46.4214 47.3467C46.3496 47.7026 46.0621 48 45.6989 48H40.4388C40.0756 48 39.7881 47.7026 39.7163 47.3467C39.4133 45.8438 38.0852 44.7119 36.4932 44.7119C34.9013 44.7121 33.5739 45.8439 33.271 47.3467C33.1992 47.7026 32.9117 48 32.5485 48H27.2884C26.9252 48 26.6377 47.7026 26.5659 47.3467C26.2629 45.8438 24.9348 44.7119 23.3428 44.7119C21.7507 44.7119 20.4227 45.8438 20.1196 47.3467C20.0478 47.7026 19.7603 48 19.3972 48H14.137C13.7739 48 13.4863 47.7026 13.4146 47.3467C13.1117 45.8439 11.7843 44.712 10.1924 44.7119C8.60035 44.7119 7.27229 45.8438 6.96923 47.3467C6.89744 47.7026 6.60991 48 6.24676 48H0.986636C0.62349 48 0.329102 47.7056 0.329102 47.3425V0.657535C0.329102 0.294388 0.62349 0 0.986636 0H6.24684Z" fill="#B4B4B4"/>
<path d="M0.329102 40.7676L150.329 40.7676" stroke="white" stroke-opacity="0.32" stroke-width="0.657534" stroke-linecap="round" stroke-dasharray="3.95 3.29"/>
<path d="M0.329102 7.23242L150.329 7.2324" stroke="white" stroke-opacity="0.32" stroke-width="0.657534" stroke-linecap="round" stroke-dasharray="3.95 3.29"/>
</svg>
