<svg width="15" height="15" viewBox="0 0 15 15" fill="none" xmlns="http://www.w3.org/2000/svg">
<path d="M7.49691 0C3.35048 0 0 3.35664 0 7.49691C0 10.6746 1.9745 13.3896 4.76348 14.4817C4.6956 13.8893 4.64007 12.9761 4.78815 12.3283C4.9239 11.7421 5.66433 8.60141 5.66433 8.60141C5.66433 8.60141 5.44221 8.15097 5.44221 7.49075C5.44221 6.44796 6.04689 5.67051 6.79967 5.67051C7.44138 5.67051 7.7499 6.15179 7.7499 6.72563C7.7499 7.36734 7.34265 8.32991 7.1267 9.2246C6.94776 9.97121 7.50309 10.5821 8.23736 10.5821C9.57014 10.5821 10.5944 9.17523 10.5944 7.15139C10.5944 5.35583 9.30482 4.10325 7.45989 4.10325C5.32497 4.10325 4.0724 5.70135 4.0724 7.355C4.0724 7.99671 4.31921 8.68778 4.62773 9.06417C4.68944 9.13821 4.6956 9.20609 4.67709 9.28013C4.62156 9.51461 4.49198 10.0267 4.4673 10.1316C4.43645 10.2674 4.35623 10.2982 4.21431 10.2304C3.28877 9.78609 2.70876 8.41629 2.70876 7.31798C2.70876 4.95476 4.4241 2.7828 7.66352 2.7828C10.2612 2.7828 12.2851 4.63389 12.2851 7.11435C12.2851 9.69971 10.6561 11.7791 8.39778 11.7791C7.63883 11.7791 6.92307 11.3842 6.68244 10.9153C6.68244 10.9153 6.30605 12.3468 6.2135 12.6985C6.04689 13.3525 5.59029 14.167 5.28177 14.6668C5.9852 14.8828 6.72563 15 7.50309 15C11.6434 15 15 11.6434 15 7.50309C14.9938 3.35664 11.6372 0 7.49691 0Z" fill="#8C8C8C"/>
</svg>
