<svg width="18" height="18" viewBox="0 0 18 18" fill="none" xmlns="http://www.w3.org/2000/svg">
<path d="M12.5556 17H12.7333C14.2268 17 14.9735 17 15.544 16.7094C16.0457 16.4537 16.4537 16.0457 16.7094 15.544C17 14.9735 17 14.2268 17 12.7333V5.26667C17 3.77319 17 3.02646 16.7094 2.45603C16.4537 1.95426 16.0457 1.54631 15.544 1.29065C14.9735 1 14.2268 1 12.7333 1H5.26667C3.77319 1 3.02646 1 2.45603 1.29065C1.95426 1.54631 1.54631 1.95426 1.29065 2.45603C1 3.02646 1 3.77319 1 5.26667V5.44444M8.55556 9.44444L13.4444 4.55556M13.4444 4.55556H9M13.4444 4.55556V9M3.84444 17H6.15556C7.1512 17 7.64903 17 8.02932 16.8062C8.36383 16.6358 8.63579 16.3638 8.80623 16.0293C9 15.649 9 15.1512 9 14.1556V11.8444C9 10.8488 9 10.351 8.80623 9.97068C8.63579 9.63617 8.36383 9.36421 8.02932 9.19377C7.64903 9 7.1512 9 6.15556 9H3.84444C2.8488 9 2.35097 9 1.97068 9.19377C1.63617 9.36421 1.36421 9.63617 1.19377 9.97068C1 10.351 1 10.8488 1 11.8444V14.1556C1 15.1512 1 15.649 1.19377 16.0293C1.36421 16.3638 1.63617 16.6358 1.97068 16.8062C2.35097 17 2.8488 17 3.84444 17Z" stroke="black" stroke-width="1.5" stroke-linecap="round" stroke-linejoin="round"/>
</svg>
