<svg width="120" height="40" viewBox="0 0 120 40" fill="none" xmlns="http://www.w3.org/2000/svg">
<path d="M3.2636 0.400391C3.55866 0.400391 3.79228 0.641989 3.85058 0.931228C4.09671 2.1523 5.17528 3.0722 6.46875 3.07227C7.76228 3.07227 8.84081 2.15234 9.08692 0.931229C9.14522 0.641989 9.37884 0.400391 9.6739 0.400391H13.9482C14.2432 0.400391 14.4769 0.641992 14.5352 0.931224C14.7815 2.15234 15.8608 3.07227 17.1543 3.07227C18.5372 3.07202 19.6748 2.02075 19.8115 0.673828C19.8192 0.520653 19.9456 0.400391 20.099 0.400391H24.6337C24.9288 0.400391 25.1624 0.641989 25.2207 0.931229C25.4668 2.15234 26.5453 3.07227 27.8389 3.07227C29.1324 3.07221 30.2109 2.15231 30.457 0.931228C30.5153 0.641989 30.749 0.400391 31.044 0.400391H35.3183C35.6133 0.400391 35.847 0.641989 35.9053 0.931228C36.1514 2.15226 37.23 3.07215 38.5234 3.07227C39.9066 3.07227 41.0439 2.02087 41.1807 0.673828C41.1889 0.520503 41.3156 0.400391 41.4691 0.400391H46.0029C46.2979 0.400391 46.5315 0.641992 46.5899 0.931224C46.8362 2.15234 47.9154 3.07227 49.209 3.07227C50.6839 3.07207 51.8796 1.8763 51.8799 0.401367C51.8799 0.400828 51.8803 0.400391 51.8809 0.400391H57.2217C57.2222 0.400391 57.2227 0.400828 57.2227 0.401367C57.2229 1.87642 58.4184 3.07226 59.8936 3.07227C61.1871 3.07227 62.2656 2.15234 62.5117 0.931229C62.57 0.641989 62.8036 0.400391 63.0987 0.400391H67.373C67.668 0.400391 67.9017 0.64199 67.96 0.931227C68.2061 2.15222 69.2848 3.07209 70.5781 3.07227C72.0532 3.07227 73.2497 1.87642 73.25 0.401367C73.25 0.400828 73.2504 0.400391 73.251 0.400391H78.0575C78.3526 0.400391 78.5862 0.641992 78.6446 0.931224C78.8909 2.15234 79.9701 3.07227 81.2637 3.07227C82.5571 3.07215 83.6357 2.15226 83.8818 0.931227C83.9401 0.641989 84.1738 0.400391 84.4688 0.400391H89.2764C89.2769 0.400391 89.2773 0.400828 89.2773 0.401367C89.2776 1.87639 90.4732 3.0722 91.9482 3.07227C93.2418 3.07227 94.3203 2.15234 94.5664 0.931229C94.6247 0.641989 94.8583 0.400391 95.1534 0.400391H99.4277C99.7227 0.400391 99.9563 0.64199 100.015 0.931226C100.261 2.15219 101.339 3.07204 102.633 3.07227C104.108 3.07227 105.304 1.87643 105.305 0.401367C105.305 0.400828 105.305 0.400391 105.306 0.400391H110.646C110.647 0.400391 110.647 0.400828 110.647 0.401367C110.648 1.87643 111.843 3.07227 113.318 3.07227C114.612 3.0722 115.69 2.1523 115.937 0.931229C115.995 0.64199 116.228 0.400391 116.524 0.400391H118.866C119.161 0.400391 119.4 0.639581 119.4 0.934637V38.8661C119.4 39.1612 119.161 39.4004 118.866 39.4004H116.523C116.228 39.4004 115.995 39.1589 115.936 38.8697C115.69 37.6489 114.612 36.7296 113.318 36.7295C112.025 36.7295 110.947 37.6489 110.7 38.8697C110.642 39.1589 110.408 39.4004 110.113 39.4004H105.839C105.544 39.4004 105.31 39.1589 105.252 38.8697C105.005 37.6489 103.926 36.7295 102.633 36.7295C101.34 36.7297 100.261 37.649 100.015 38.8697C99.9564 39.1589 99.7228 39.4004 99.4278 39.4004H95.1533C94.8583 39.4004 94.6247 39.1589 94.5663 38.8697C94.32 37.6489 93.2416 36.7295 91.9482 36.7295C90.6549 36.7296 89.5765 37.6489 89.3302 38.8697C89.2718 39.1589 89.0382 39.4004 88.7432 39.4004H84.4687C84.1737 39.4004 83.9401 39.1589 83.8817 38.8697C83.6354 37.649 82.5569 36.7296 81.2637 36.7295C79.9703 36.7295 78.8911 37.6489 78.6447 38.8697C78.5863 39.1589 78.3527 39.4004 78.0577 39.4004H73.7841C73.4891 39.4004 73.2555 39.1589 73.1971 38.8697C72.9507 37.6489 71.8715 36.7295 70.5781 36.7295C69.2849 36.7297 68.2064 37.649 67.9601 38.8697C67.9017 39.1589 67.6681 39.4004 67.3731 39.4004H63.0986C62.8036 39.4004 62.57 39.1589 62.5116 38.8697C62.2653 37.6489 61.1869 36.7295 59.8936 36.7295C58.6002 36.7295 57.5218 37.6489 57.2755 38.8697C57.2171 39.1589 56.9835 39.4004 56.6885 39.4004H52.414C52.119 39.4004 51.8854 39.1589 51.827 38.8697C51.5807 37.649 50.5022 36.7297 49.209 36.7295C47.9156 36.7295 46.8365 37.6489 46.59 38.8697C46.5316 39.1589 46.298 39.4004 46.003 39.4004H41.7294C41.4344 39.4004 41.2008 39.1589 41.1424 38.8697C40.896 37.6489 39.8168 36.7295 38.5234 36.7295C37.2302 36.7296 36.1517 37.649 35.9054 38.8697C35.847 39.1589 35.6134 39.4004 35.3184 39.4004H31.0439C30.7489 39.4004 30.5153 39.1589 30.4569 38.8697C30.2106 37.6489 29.1322 36.7295 27.8389 36.7295C26.5455 36.7295 25.4671 37.6489 25.2208 38.8697C25.1624 39.1589 24.9288 39.4004 24.6338 39.4004H20.3593C20.0643 39.4004 19.8307 39.1589 19.7724 38.8697C19.526 37.649 18.4475 36.7297 17.1543 36.7295C15.8609 36.7295 14.7818 37.6489 14.5353 38.8697C14.4769 39.1589 14.2433 39.4004 13.9483 39.4004H9.67378C9.37877 39.4004 9.14517 39.1589 9.08683 38.8697C8.84053 37.6489 7.76211 36.7295 6.46875 36.7295C5.17545 36.7296 4.09699 37.6489 3.85068 38.8697C3.79233 39.1589 3.55873 39.4004 3.26372 39.4004H0.934637C0.639581 39.4004 0.400391 39.1612 0.400391 38.8661V0.93464C0.400391 0.639583 0.639581 0.400391 0.934637 0.400391H3.2636Z" fill="#757575"/>
<path d="M6.46875 3.07227L6.46873 3.47295H6.46875V3.07227ZM17.1543 3.07227L17.1543 3.47295L17.1544 3.47295L17.1543 3.07227ZM19.8115 0.673828L20.2102 0.714283L20.2112 0.70408L20.2117 0.693837L19.8115 0.673828ZM27.8389 3.07227L27.8389 3.47295L27.8389 3.47295L27.8389 3.07227ZM38.5234 3.07227L38.5234 3.47295H38.5234V3.07227ZM41.1807 0.673828L41.5793 0.714294L41.5803 0.704796L41.5808 0.695263L41.1807 0.673828ZM49.209 3.07227L49.209 3.47295L49.209 3.47295L49.209 3.07227ZM51.8799 0.401367L52.2806 0.401439V0.401367H51.8799ZM57.2227 0.401367L56.822 0.401367L56.822 0.401439L57.2227 0.401367ZM59.8936 3.07227L59.8936 3.47295H59.8936V3.07227ZM70.5781 3.07227L70.5781 3.47295H70.5781V3.07227ZM73.25 0.401367L73.6507 0.401439V0.401367H73.25ZM81.2637 3.07227L81.2637 3.47295L81.2637 3.47295L81.2637 3.07227ZM89.2773 0.401367L88.8767 0.401367L88.8767 0.401439L89.2773 0.401367ZM91.9482 3.07227L91.9482 3.47295H91.9482V3.07227ZM102.633 3.07227L102.633 3.47295H102.633V3.07227ZM105.305 0.401367L105.705 0.401438V0.401367H105.305ZM110.647 0.401367L110.247 0.401367L110.247 0.401438L110.647 0.401367ZM113.318 3.07227L113.318 3.47295L113.318 3.47295L113.318 3.07227ZM113.318 36.7295L113.318 36.3288H113.318V36.7295ZM102.633 36.7295L102.633 36.3288L102.633 36.3288L102.633 36.7295ZM91.9482 36.7295L91.9482 36.3288L91.9482 36.3288L91.9482 36.7295ZM81.2637 36.7295L81.2637 36.3288H81.2637V36.7295ZM70.5781 36.7295L70.5781 36.3288L70.5781 36.3288L70.5781 36.7295ZM59.8936 36.7295L59.8936 36.3288L59.8936 36.3288L59.8936 36.7295ZM49.209 36.7295L49.209 36.3288H49.209V36.7295ZM38.5234 36.7295V36.3288L38.5234 36.3288L38.5234 36.7295ZM27.8389 36.7295L27.8389 36.3288H27.8389V36.7295ZM17.1543 36.7295L17.1544 36.3288H17.1543V36.7295ZM6.46875 36.7295L6.46875 36.3288L6.46873 36.3288L6.46875 36.7295ZM19.7724 38.8697L19.3796 38.9489L19.7724 38.8697ZM30.4569 38.8697L30.8497 38.7904L30.4569 38.8697ZM35.9054 38.8697L35.5126 38.7904L35.9054 38.8697ZM46.59 38.8697L46.1972 38.7904L46.59 38.8697ZM62.5116 38.8697L62.9044 38.7904L62.5116 38.8697ZM73.1971 38.8697L73.5899 38.7904L73.1971 38.8697ZM83.8817 38.8697L84.2745 38.7904L83.8817 38.8697ZM89.3302 38.8697L88.9374 38.7904L89.3302 38.8697ZM100.015 38.8697L100.408 38.949L100.015 38.8697ZM105.252 38.8697L104.859 38.949L105.252 38.8697ZM110.7 38.8697L111.093 38.9489L110.7 38.8697ZM115.936 38.8697L115.544 38.9489L115.936 38.8697ZM3.85068 38.8697L3.45791 38.7904L3.85068 38.8697ZM83.8818 0.931227L83.4891 0.852049L83.8818 0.931227ZM25.2208 38.8697L24.828 38.7904L25.2208 38.8697ZM67.96 0.931227L67.5672 1.01041L67.96 0.931227ZM62.5117 0.931229L62.9045 1.01039L62.5117 0.931229ZM100.015 0.931226L100.407 0.852035L100.015 0.931226ZM67.9601 38.8697L67.5673 38.7904L67.9601 38.8697ZM35.9053 0.931228L36.2981 0.85205L35.9053 0.931228ZM94.5664 0.931229L94.9592 1.01039L94.5664 0.931229ZM30.457 0.931228L30.0642 0.852058L30.457 0.931228ZM115.937 0.931229L116.329 1.0104L115.937 0.931229ZM41.1424 38.8697L40.7497 38.949L41.1424 38.8697ZM51.827 38.8697L52.2198 38.7904L51.827 38.8697ZM46.5899 0.931224L46.1971 1.01044L46.5899 0.931224ZM9.08683 38.8697L9.4796 38.7904L9.08683 38.8697ZM78.6446 0.931224L78.2518 1.01044L78.6446 0.931224ZM14.5352 0.931224L14.1424 1.01044L14.5352 0.931224ZM78.6447 38.8697L79.0374 38.949L78.6447 38.8697ZM25.2207 0.931229L24.8279 1.01039L25.2207 0.931229ZM57.2755 38.8697L57.6683 38.9489L57.2755 38.8697ZM94.5663 38.8697L94.9591 38.7904L94.5663 38.8697ZM9.08692 0.931229L8.69414 0.852065L9.08692 0.931229ZM3.85058 0.931228L3.4578 1.0104C3.74085 2.41466 4.98063 3.47288 6.46873 3.47295L6.46875 3.07227L6.46877 2.67158C5.36992 2.67153 4.45257 1.88994 4.24337 0.852057L3.85058 0.931228ZM6.46875 3.07227V3.47295C7.95694 3.47295 9.19668 2.41469 9.47971 1.01039L9.08692 0.931229L8.69414 0.852065C8.48495 1.88999 7.56763 2.67158 6.46875 2.67158V3.07227ZM9.6739 0.400391V0.801076H13.9482V0.400391V-0.000294447H9.6739V0.400391ZM14.5352 0.931224L14.1424 1.01044C14.4257 2.41482 15.6662 3.47295 17.1543 3.47295V3.07227V2.67158C16.0553 2.67158 15.1373 1.88986 14.928 0.852004L14.5352 0.931224ZM17.1543 3.07227L17.1544 3.47295C18.745 3.47267 20.0529 2.26369 20.2102 0.714283L19.8115 0.673828L19.4129 0.633373C19.2967 1.77781 18.3295 2.67137 17.1542 2.67158L17.1543 3.07227ZM20.099 0.400391V0.801076H24.6337V0.400391V-0.000294447H20.099V0.400391ZM25.2207 0.931229L24.8279 1.01039C25.1109 2.41469 26.3507 3.47295 27.8389 3.47295V3.07227V2.67158C26.74 2.67158 25.8227 1.88999 25.6135 0.852065L25.2207 0.931229ZM27.8389 3.07227L27.8389 3.47295C29.327 3.47289 30.5668 2.41466 30.8498 1.0104L30.457 0.931228L30.0642 0.852058C29.8551 1.88995 28.9377 2.67153 27.8389 2.67158L27.8389 3.07227ZM31.044 0.400391V0.801076H35.3183V0.400391V-0.000294447H31.044V0.400391ZM35.9053 0.931228L35.5125 1.01041C35.7956 2.41463 37.0354 3.47282 38.5234 3.47295L38.5234 3.07227L38.5235 2.67158C37.4247 2.67148 36.5073 1.88989 36.2981 0.85205L35.9053 0.931228ZM38.5234 3.07227V3.47295C40.1144 3.47295 41.422 2.26374 41.5793 0.714294L41.1807 0.673828L40.782 0.633363C40.6658 1.77801 39.6988 2.67158 38.5234 2.67158V3.07227ZM41.4691 0.400391V0.801076H46.0029V0.400391V-0.000294447H41.4691V0.400391ZM46.5899 0.931224L46.1971 1.01044C46.4804 2.41482 47.7209 3.47295 49.209 3.47295V3.07227V2.67158C48.11 2.67158 47.192 1.88986 46.9827 0.852004L46.5899 0.931224ZM49.209 3.07227L49.209 3.47295C50.9053 3.47272 52.2803 2.09759 52.2806 0.401439L51.8799 0.401367L51.4792 0.401296C51.479 1.65501 50.4626 2.67141 49.2089 2.67158L49.209 3.07227ZM51.8809 0.400391V0.801076H57.2217V0.400391V-0.000294447H51.8809V0.400391ZM57.2227 0.401367L56.822 0.401439C56.8223 2.09766 58.1971 3.47295 59.8936 3.47295L59.8936 3.07227L59.8936 2.67158C58.6398 2.67158 57.6236 1.65519 57.6233 0.401296L57.2227 0.401367ZM59.8936 3.07227V3.47295C61.3817 3.47295 62.6215 2.41469 62.9045 1.01039L62.5117 0.931229L62.1189 0.852065C61.9098 1.88999 60.9924 2.67158 59.8936 2.67158V3.07227ZM63.0987 0.400391V0.801076H67.373V0.400391V-0.000294447H63.0987V0.400391ZM67.96 0.931227L67.5672 1.01041C67.8503 2.41461 69.0901 3.47275 70.5781 3.47295L70.5781 3.07227L70.5782 2.67158C69.4794 2.67143 68.562 1.88984 68.3527 0.852042L67.96 0.931227ZM70.5781 3.07227V3.47295C72.2744 3.47295 73.6504 2.09785 73.6507 0.401439L73.25 0.401367L72.8493 0.401296C72.8491 1.655 71.8321 2.67158 70.5781 2.67158V3.07227ZM73.251 0.400391V0.801076H78.0575V0.400391V-0.000294447H73.251V0.400391ZM78.6446 0.931224L78.2518 1.01044C78.535 2.41482 79.7756 3.47295 81.2637 3.47295V3.07227V2.67158C80.1647 2.67158 79.2467 1.88986 79.0373 0.852004L78.6446 0.931224ZM81.2637 3.07227L81.2637 3.47295C82.7517 3.47281 83.9916 2.41463 84.2746 1.01041L83.8818 0.931227L83.4891 0.852049C83.2798 1.88989 82.3625 2.67148 81.2636 2.67158L81.2637 3.07227ZM84.4688 0.400391V0.801076H89.2764V0.400391V-0.000294447H84.4688V0.400391ZM89.2773 0.401367L88.8767 0.401439C88.877 2.09764 90.2518 3.47288 91.9482 3.47295L91.9482 3.07227L91.9483 2.67158C90.6945 2.67153 89.6783 1.65513 89.678 0.401296L89.2773 0.401367ZM91.9482 3.07227V3.47295C93.4364 3.47295 94.6762 2.41469 94.9592 1.01039L94.5664 0.931229L94.1736 0.852065C93.9644 1.88999 93.0471 2.67158 91.9482 2.67158V3.07227ZM95.1534 0.400391V0.801076H99.4277V0.400391V-0.000294447H95.1534V0.400391ZM100.015 0.931226L99.6219 1.01042C99.905 2.41458 101.145 3.47269 102.633 3.47295L102.633 3.07227L102.633 2.67158C101.534 2.67139 100.617 1.8898 100.407 0.852035L100.015 0.931226ZM102.633 3.07227V3.47295C104.329 3.47295 105.705 2.09785 105.705 0.401438L105.305 0.401367L104.904 0.401296C104.904 1.655 103.887 2.67158 102.633 2.67158V3.07227ZM105.306 0.400391V0.801076H110.646V0.400391V-0.000294447H105.306V0.400391ZM110.647 0.401367L110.247 0.401438C110.247 2.09766 111.622 3.47295 113.318 3.47295V3.07227V2.67158C112.065 2.67158 111.048 1.65519 111.048 0.401296L110.647 0.401367ZM113.318 3.07227L113.318 3.47295C114.806 3.47288 116.046 2.41466 116.329 1.0104L115.937 0.931229L115.544 0.852057C115.335 1.88994 114.417 2.67153 113.318 2.67158L113.318 3.07227ZM116.524 0.400391V0.801076H118.866V0.400391V-0.000294447H116.524V0.400391ZM119.4 0.934637H119V38.8661H119.4H119.801V0.934637H119.4ZM118.866 39.4004V38.9997H116.523V39.4004V39.8011H118.866V39.4004ZM115.936 38.8697L116.329 38.7904C116.046 37.3865 114.806 36.3289 113.318 36.3288L113.318 36.7295L113.318 37.1302C114.417 37.1302 115.334 37.9114 115.544 38.9489L115.936 38.8697ZM113.318 36.7295V36.3288C111.83 36.3288 110.591 37.3864 110.308 38.7904L110.7 38.8697L111.093 38.9489C111.302 37.9113 112.22 37.1302 113.318 37.1302V36.7295ZM110.113 39.4004V38.9997H105.839V39.4004V39.8011H110.113V39.4004ZM105.252 38.8697L105.645 38.7904C105.361 37.3863 104.121 36.3288 102.633 36.3288V36.7295V37.1302C103.732 37.1302 104.65 37.9115 104.859 38.949L105.252 38.8697ZM102.633 36.7295L102.633 36.3288C101.145 36.3291 99.9053 37.3865 99.622 38.7904L100.015 38.8697L100.408 38.949C100.617 37.9115 101.534 37.1304 102.633 37.1302L102.633 36.7295ZM99.4278 39.4004V38.9997H95.1533V39.4004V39.8011H99.4278V39.4004ZM94.5663 38.8697L94.9591 38.7904C94.6758 37.3864 93.4362 36.3288 91.9482 36.3288V36.7295V37.1302C93.047 37.1302 93.9642 37.9113 94.1735 38.9489L94.5663 38.8697ZM91.9482 36.7295L91.9482 36.3288C90.4604 36.3289 89.2207 37.3865 88.9374 38.7904L89.3302 38.8697L89.7229 38.9489C89.9323 37.9114 90.8495 37.1302 91.9483 37.1302L91.9482 36.7295ZM88.7432 39.4004V38.9997H84.4687V39.4004V39.8011H88.7432V39.4004ZM83.8817 38.8697L84.2745 38.7904C83.9912 37.3865 82.7515 36.3289 81.2637 36.3288L81.2637 36.7295L81.2636 37.1302C82.3624 37.1303 83.2796 37.9114 83.489 38.9489L83.8817 38.8697ZM81.2637 36.7295V36.3288C79.7759 36.3288 78.5354 37.3863 78.2519 38.7904L78.6447 38.8697L79.0374 38.949C79.2469 37.9115 80.1647 37.1302 81.2637 37.1302V36.7295ZM78.0577 39.4004V38.9997H73.7841V39.4004V39.8011H78.0577V39.4004ZM73.1971 38.8697L73.5899 38.7904C73.3064 37.3863 72.0659 36.3288 70.5781 36.3288V36.7295V37.1302C71.6771 37.1302 72.5949 37.9115 72.8044 38.949L73.1971 38.8697ZM70.5781 36.7295L70.5781 36.3288C69.0904 36.329 67.8506 37.3865 67.5673 38.7904L67.9601 38.8697L68.3528 38.9489C68.5622 37.9115 69.4795 37.1303 70.5782 37.1302L70.5781 36.7295ZM67.3731 39.4004V38.9997H63.0986V39.4004V39.8011H67.3731V39.4004ZM62.5116 38.8697L62.9044 38.7904C62.6211 37.3864 61.3815 36.3288 59.8936 36.3288V36.7295V37.1302C60.9924 37.1302 61.9095 37.9113 62.1189 38.9489L62.5116 38.8697ZM59.8936 36.7295L59.8936 36.3288C58.4056 36.3288 57.166 37.3864 56.8827 38.7904L57.2755 38.8697L57.6683 38.9489C57.8776 37.9113 58.7948 37.1302 59.8936 37.1302L59.8936 36.7295ZM56.6885 39.4004V38.9997H52.414V39.4004V39.8011H56.6885V39.4004ZM51.827 38.8697L52.2198 38.7904C51.9365 37.3865 50.6967 36.329 49.209 36.3288L49.209 36.7295L49.2089 37.1302C50.3076 37.1303 51.2249 37.9115 51.4343 38.9489L51.827 38.8697ZM49.209 36.7295V36.3288C47.7212 36.3288 46.4807 37.3863 46.1972 38.7904L46.59 38.8697L46.9827 38.949C47.1922 37.9115 48.1101 37.1302 49.209 37.1302V36.7295ZM46.003 39.4004V38.9997H41.7294V39.4004V39.8011H46.003V39.4004ZM41.1424 38.8697L41.5352 38.7904C41.2517 37.3863 40.0112 36.3288 38.5234 36.3288V36.7295V37.1302C39.6224 37.1302 40.5402 37.9115 40.7497 38.949L41.1424 38.8697ZM38.5234 36.7295L38.5234 36.3288C37.0356 36.3289 35.7959 37.3865 35.5126 38.7904L35.9054 38.8697L36.2981 38.9489C36.5075 37.9114 37.4247 37.1303 38.5235 37.1302L38.5234 36.7295ZM35.3184 39.4004V38.9997H31.0439V39.4004V39.8011H35.3184V39.4004ZM30.4569 38.8697L30.8497 38.7904C30.5664 37.3864 29.3267 36.3289 27.8389 36.3288L27.8389 36.7295L27.8389 37.1302C28.9376 37.1302 29.8548 37.9114 30.0642 38.9489L30.4569 38.8697ZM27.8389 36.7295V36.3288C26.3509 36.3288 25.1113 37.3864 24.828 38.7904L25.2208 38.8697L25.6136 38.9489C25.8229 37.9113 26.7401 37.1302 27.8389 37.1302V36.7295ZM24.6338 39.4004V38.9997H20.3593V39.4004V39.8011H24.6338V39.4004ZM19.7724 38.8697L20.1651 38.7904C19.8818 37.3865 18.642 36.3291 17.1544 36.3288L17.1543 36.7295L17.1542 37.1302C18.2529 37.1304 19.1702 37.9115 19.3796 38.9489L19.7724 38.8697ZM17.1543 36.7295V36.3288C15.6665 36.3288 14.426 37.3863 14.1425 38.7904L14.5353 38.8697L14.928 38.949C15.1375 37.9115 16.0554 37.1302 17.1543 37.1302V36.7295ZM13.9483 39.4004V38.9997H9.67378V39.4004V39.8011H13.9483V39.4004ZM9.08683 38.8697L9.4796 38.7904C9.19634 37.3864 7.95667 36.3288 6.46875 36.3288V36.7295V37.1302C7.56755 37.1302 8.48472 37.9113 8.69405 38.9489L9.08683 38.8697ZM6.46875 36.7295L6.46873 36.3288C4.9809 36.3289 3.74119 37.3865 3.45791 38.7904L3.85068 38.8697L4.24345 38.9489C4.45279 37.9114 5.37 37.1302 6.46877 37.1302L6.46875 36.7295ZM3.26372 39.4004V38.9997H0.934637V39.4004V39.8011H3.26372V39.4004ZM0.400391 38.8661H0.801076V0.93464H0.400391H-0.000294447V38.8661H0.400391ZM0.934637 0.400391V0.801076H3.2636V0.400391V-0.000294447H0.934637V0.400391ZM0.400391 0.93464H0.801076C0.801076 0.860873 0.860876 0.801076 0.934637 0.801076V0.400391V-0.000294447C0.418286 -0.000294447 -0.000294447 0.418294 -0.000294447 0.93464H0.400391ZM20.3593 39.4004V38.9997C20.3263 38.9997 20.2895 38.9872 20.2517 38.9517C20.2119 38.9143 20.1785 38.8569 20.1651 38.7904L19.7724 38.8697L19.3796 38.9489C19.4658 39.3763 19.8278 39.8011 20.3593 39.8011V39.4004ZM31.0439 39.4004V38.9997C31.0108 38.9997 30.9741 38.9872 30.9363 38.9517C30.8965 38.9143 30.8631 38.8569 30.8497 38.7904L30.4569 38.8697L30.0642 38.9489C30.1504 39.3763 30.5124 39.8011 31.0439 39.8011V39.4004ZM35.9054 38.8697L35.5126 38.7904C35.4992 38.8569 35.4658 38.9143 35.426 38.9517C35.3883 38.9872 35.3515 38.9997 35.3184 38.9997V39.4004V39.8011C35.8499 39.8011 36.2119 39.3763 36.2981 38.9489L35.9054 38.8697ZM46.59 38.8697L46.1972 38.7904C46.1838 38.8569 46.1504 38.9143 46.1106 38.9517C46.0728 38.9872 46.036 38.9997 46.003 38.9997V39.4004V39.8011C46.5345 39.8011 46.8965 39.3763 46.9827 38.949L46.59 38.8697ZM63.0986 39.4004V38.9997C63.0655 38.9997 63.0287 38.9872 62.991 38.9517C62.9512 38.9143 62.9178 38.8569 62.9044 38.7904L62.5116 38.8697L62.1189 38.9489C62.2051 39.3763 62.5671 39.8011 63.0986 39.8011V39.4004ZM73.7841 39.4004V38.9997C73.7511 38.9997 73.7143 38.9872 73.6765 38.9517C73.6367 38.9143 73.6033 38.8569 73.5899 38.7904L73.1971 38.8697L72.8044 38.949C72.8907 39.3763 73.2526 39.8011 73.7841 39.8011V39.4004ZM84.4687 39.4004V38.9997C84.4356 38.9997 84.3989 38.9872 84.3611 38.9517C84.3213 38.9143 84.2879 38.8569 84.2745 38.7904L83.8817 38.8697L83.489 38.9489C83.5752 39.3763 83.9372 39.8011 84.4687 39.8011V39.4004ZM89.3302 38.8697L88.9374 38.7904C88.924 38.8569 88.8906 38.9143 88.8508 38.9517C88.8131 38.9872 88.7763 38.9997 88.7432 38.9997V39.4004V39.8011C89.2747 39.8011 89.6367 39.3763 89.7229 38.9489L89.3302 38.8697ZM100.015 38.8697L99.622 38.7904C99.6086 38.8569 99.5752 38.9143 99.5354 38.9517C99.4976 38.9872 99.4608 38.9997 99.4278 38.9997V39.4004V39.8011C99.9593 39.8011 100.321 39.3763 100.408 38.949L100.015 38.8697ZM105.839 39.4004V38.9997C105.806 38.9997 105.769 38.9872 105.731 38.9517C105.691 38.9143 105.658 38.8569 105.645 38.7904L105.252 38.8697L104.859 38.949C104.945 39.3763 105.307 39.8011 105.839 39.8011V39.4004ZM110.7 38.8697L110.308 38.7904C110.294 38.8569 110.261 38.9143 110.221 38.9517C110.183 38.9872 110.146 38.9997 110.113 38.9997V39.4004V39.8011C110.645 39.8011 111.007 39.3763 111.093 38.9489L110.7 38.8697ZM116.523 39.4004V38.9997C116.49 38.9997 116.454 38.9872 116.416 38.9517C116.376 38.9143 116.343 38.8569 116.329 38.7904L115.936 38.8697L115.544 38.9489C115.63 39.3763 115.992 39.8011 116.523 39.8011V39.4004ZM119.4 38.8661H119C119 38.9399 118.94 38.9997 118.866 38.9997V39.4004V39.8011C119.382 39.8011 119.801 39.3825 119.801 38.8661H119.4ZM3.85068 38.8697L3.45791 38.7904C3.4445 38.8569 3.41109 38.9143 3.37134 38.9517C3.33356 38.9872 3.29678 38.9997 3.26372 38.9997V39.4004V39.8011C3.7952 39.8011 4.15722 39.3763 4.24345 38.9489L3.85068 38.8697ZM83.8818 0.931227L84.2746 1.01041C84.288 0.943935 84.3214 0.886526 84.3612 0.849105C84.399 0.81354 84.4358 0.801076 84.4688 0.801076V0.400391V-0.000294447C83.9373 -0.000294447 83.5752 0.424601 83.4891 0.852049L83.8818 0.931227ZM25.2208 38.8697L24.828 38.7904C24.8146 38.8569 24.7812 38.9143 24.7415 38.9517C24.7037 38.9872 24.6669 38.9997 24.6338 38.9997V39.4004V39.8011C25.1653 39.8011 25.5273 39.3763 25.6136 38.9489L25.2208 38.8697ZM67.373 0.400391V0.801076C67.406 0.801076 67.4428 0.81354 67.4806 0.849106C67.5204 0.886528 67.5538 0.943939 67.5672 1.01041L67.96 0.931227L68.3527 0.852042C68.2666 0.424601 67.9045 -0.000294447 67.373 -0.000294447V0.400391ZM62.5117 0.931229L62.9045 1.01039C62.9179 0.943927 62.9513 0.886522 62.9911 0.849104C63.0288 0.81354 63.0656 0.801076 63.0987 0.801076V0.400391V-0.000294447C62.5671 -0.000294447 62.2051 0.424601 62.1189 0.852065L62.5117 0.931229ZM99.4277 0.400391V0.801076C99.4607 0.801076 99.4975 0.81354 99.5353 0.849107C99.5751 0.88653 99.6085 0.943942 99.6219 1.01042L100.015 0.931226L100.407 0.852035C100.321 0.424602 99.9592 -0.000294447 99.4277 -0.000294447V0.400391ZM67.9601 38.8697L67.5673 38.7904C67.5539 38.8569 67.5205 38.9143 67.4807 38.9517C67.4429 38.9872 67.4062 38.9997 67.3731 38.9997V39.4004V39.8011C67.9046 39.8011 68.2666 39.3763 68.3528 38.9489L67.9601 38.8697ZM35.3183 0.400391V0.801076C35.3514 0.801076 35.3881 0.81354 35.4259 0.849105C35.4657 0.886526 35.4991 0.943935 35.5125 1.01041L35.9053 0.931228L36.2981 0.85205C36.2119 0.424601 35.8499 -0.000294447 35.3183 -0.000294447V0.400391ZM94.5664 0.931229L94.9592 1.01039C94.9726 0.943927 95.006 0.886522 95.0458 0.849104C95.0835 0.81354 95.1203 0.801076 95.1534 0.801076V0.400391V-0.000294447C94.6218 -0.000294447 94.2598 0.424601 94.1736 0.852065L94.5664 0.931229ZM30.457 0.931228L30.8498 1.0104C30.8632 0.943931 30.8966 0.886524 30.9364 0.849104C30.9742 0.81354 31.0109 0.801076 31.044 0.801076V0.400391V-0.000294447C30.5124 -0.000294447 30.1504 0.424601 30.0642 0.852058L30.457 0.931228ZM115.937 0.931229L116.329 1.0104C116.343 0.943932 116.376 0.886524 116.416 0.849105C116.454 0.81354 116.49 0.801076 116.524 0.801076V0.400391V-0.000294447C115.992 -0.000294447 115.63 0.424602 115.544 0.852057L115.937 0.931229ZM41.7294 39.4004V38.9997C41.6964 38.9997 41.6596 38.9872 41.6218 38.9517C41.5821 38.9143 41.5486 38.8569 41.5352 38.7904L41.1424 38.8697L40.7497 38.949C40.836 39.3763 41.198 39.8011 41.7294 39.8011V39.4004ZM51.8799 0.401367H52.2806C52.2806 0.62212 52.1016 0.801076 51.8809 0.801076V0.400391V-0.000294447C51.659 -0.000294447 51.4792 0.179536 51.4792 0.401367H51.8799ZM0.934637 39.4004V38.9997C0.860873 38.9997 0.801076 38.9399 0.801076 38.8661H0.400391H-0.000294447C-0.000294447 39.3825 0.418289 39.8011 0.934637 39.8011V39.4004ZM89.2764 0.400391V0.801076C89.0557 0.801076 88.8767 0.622193 88.8767 0.401367H89.2773H89.678C89.678 0.179463 89.4981 -0.000294447 89.2764 -0.000294447V0.400391ZM19.8115 0.673828L20.2117 0.693837C20.2087 0.75391 20.1591 0.801076 20.099 0.801076V0.400391V-0.000294447C19.7321 -0.000294447 19.4297 0.287396 19.4113 0.653819L19.8115 0.673828ZM110.646 0.400391V0.801076C110.426 0.801076 110.247 0.622193 110.247 0.401367H110.647H111.048C111.048 0.179463 110.868 -0.000294447 110.646 -0.000294447V0.400391ZM52.414 39.4004V38.9997C52.381 38.9997 52.3442 38.9872 52.3064 38.9517C52.2666 38.9143 52.2332 38.8569 52.2198 38.7904L51.827 38.8697L51.4343 38.9489C51.5205 39.3763 51.8825 39.8011 52.414 39.8011V39.4004ZM46.0029 0.400391V0.801076C46.0359 0.801076 46.0727 0.813539 46.1105 0.849111C46.1503 0.886538 46.1837 0.943959 46.1971 1.01044L46.5899 0.931224L46.9827 0.852004C46.8964 0.424604 46.5344 -0.000294447 46.0029 -0.000294447V0.400391ZM9.67378 39.4004V38.9997C9.64072 38.9997 9.60394 38.9872 9.56616 38.9517C9.52641 38.9143 9.493 38.8569 9.4796 38.7904L9.08683 38.8697L8.69405 38.9489C8.78028 39.3763 9.1423 39.8011 9.67378 39.8011V39.4004ZM78.0575 0.400391V0.801076C78.0906 0.801076 78.1274 0.813539 78.1652 0.849111C78.205 0.886538 78.2384 0.943959 78.2518 1.01044L78.6446 0.931224L79.0373 0.852004C78.9511 0.424604 78.5891 -0.000294447 78.0575 -0.000294447V0.400391ZM13.9482 0.400391V0.801076C13.9812 0.801076 14.018 0.813539 14.0558 0.849111C14.0956 0.886538 14.129 0.943959 14.1424 1.01044L14.5352 0.931224L14.928 0.852004C14.8418 0.424604 14.4797 -0.000294447 13.9482 -0.000294447V0.400391ZM118.866 0.400391V0.801076C118.94 0.801076 119 0.860873 119 0.934637H119.4H119.801C119.801 0.418289 119.382 -0.000294447 118.866 -0.000294447V0.400391ZM57.2217 0.400391V0.801076C57.001 0.801076 56.822 0.622193 56.822 0.401367H57.2227H57.6233C57.6233 0.179463 57.4434 -0.000294447 57.2217 -0.000294447V0.400391ZM78.6447 38.8697L78.2519 38.7904C78.2385 38.8569 78.2051 38.9143 78.1653 38.9517C78.1275 38.9872 78.0907 38.9997 78.0577 38.9997V39.4004V39.8011C78.5892 39.8011 78.9511 39.3763 79.0374 38.949L78.6447 38.8697ZM24.6337 0.400391V0.801076C24.6668 0.801076 24.7036 0.81354 24.7414 0.849104C24.7811 0.886522 24.8145 0.943927 24.8279 1.01039L25.2207 0.931229L25.6135 0.852065C25.5273 0.4246 25.1653 -0.000294447 24.6337 -0.000294447V0.400391ZM105.305 0.401367H105.705C105.705 0.62212 105.526 0.801076 105.306 0.801076V0.400391V-0.000294447C105.084 -0.000294447 104.904 0.179536 104.904 0.401367H105.305ZM57.2755 38.8697L56.8827 38.7904C56.8693 38.8569 56.8359 38.9143 56.7961 38.9517C56.7584 38.9872 56.7216 38.9997 56.6885 38.9997V39.4004V39.8011C57.22 39.8011 57.582 39.3763 57.6683 38.9489L57.2755 38.8697ZM41.1807 0.673828L41.5808 0.695263C41.5776 0.754595 41.5286 0.801076 41.4691 0.801076V0.400391V-0.000294447C41.1026 -0.000294447 40.8002 0.28641 40.7806 0.652394L41.1807 0.673828ZM14.5353 38.8697L14.1425 38.7904C14.1291 38.8569 14.0957 38.9143 14.0559 38.9517C14.0181 38.9872 13.9813 38.9997 13.9483 38.9997V39.4004V39.8011C14.4798 39.8011 14.8418 39.3763 14.928 38.949L14.5353 38.8697ZM73.25 0.401367H73.6507C73.6507 0.62212 73.4717 0.801076 73.251 0.801076V0.400391V-0.000294447C73.0291 -0.000294447 72.8493 0.179536 72.8493 0.401367H73.25ZM95.1533 39.4004V38.9997C95.1202 38.9997 95.0834 38.9872 95.0457 38.9517C95.0059 38.9143 94.9725 38.8569 94.9591 38.7904L94.5663 38.8697L94.1735 38.9489C94.2598 39.3763 94.6218 39.8011 95.1533 39.8011V39.4004ZM9.08692 0.931229L9.47971 1.01039C9.49311 0.943927 9.52651 0.886522 9.56626 0.849104C9.60404 0.81354 9.64083 0.801076 9.6739 0.801076V0.400391V-0.000294447C9.14233 -0.000294447 8.78029 0.424601 8.69414 0.852065L9.08692 0.931229ZM3.85058 0.931228L4.24337 0.852057C4.15721 0.424601 3.79517 -0.000294447 3.2636 -0.000294447V0.400391V0.801076C3.29667 0.801076 3.33346 0.81354 3.37124 0.849104C3.41099 0.886524 3.4444 0.943931 3.4578 1.0104L3.85058 0.931228Z" fill="#757575"/>
</svg>
