<svg width="120" height="40" viewBox="0 0 120 40" fill="none" xmlns="http://www.w3.org/2000/svg">
<path d="M3.26409 0.400391C3.55915 0.400391 3.79277 0.641989 3.85107 0.931228C4.0972 2.1523 5.17576 3.0722 6.46924 3.07227C7.76277 3.07227 8.8413 2.15234 9.08741 0.931229C9.14571 0.641989 9.37933 0.400391 9.67438 0.400391H13.9487C14.2437 0.400391 14.4773 0.641992 14.5357 0.931224C14.782 2.15234 15.8612 3.07227 17.1548 3.07227C18.5377 3.07202 19.6753 2.02075 19.812 0.673828C19.8197 0.520653 19.9461 0.400391 20.0995 0.400391H24.6342C24.9293 0.400391 25.1629 0.641989 25.2212 0.931229C25.4673 2.15234 26.5458 3.07227 27.8394 3.07227C29.1328 3.07221 30.2114 2.15231 30.4575 0.931228C30.5158 0.641989 30.7494 0.400391 31.0445 0.400391H35.3188C35.6138 0.400391 35.8475 0.641989 35.9058 0.931228C36.1519 2.15226 37.2305 3.07215 38.5239 3.07227C39.907 3.07227 41.0444 2.02087 41.1812 0.673828C41.1894 0.520503 41.3161 0.400391 41.4696 0.400391H46.0034C46.2984 0.400391 46.532 0.641992 46.5904 0.931224C46.8367 2.15234 47.9159 3.07227 49.2095 3.07227C50.6844 3.07207 51.8801 1.8763 51.8804 0.401367C51.8804 0.400828 51.8808 0.400391 51.8813 0.400391H57.2222C57.2227 0.400391 57.2231 0.400828 57.2231 0.401367C57.2234 1.87642 58.4189 3.07226 59.894 3.07227C61.1876 3.07227 62.2661 2.15234 62.5122 0.931229C62.5705 0.641989 62.8041 0.400391 63.0992 0.400391H67.3735C67.6685 0.400391 67.9021 0.64199 67.9605 0.931227C68.2066 2.15222 69.2852 3.07209 70.5786 3.07227C72.0537 3.07227 73.2502 1.87642 73.2505 0.401367C73.2505 0.400828 73.2509 0.400391 73.2515 0.400391H78.058C78.3531 0.400391 78.5867 0.641992 78.6451 0.931224C78.8913 2.15234 79.9706 3.07227 81.2642 3.07227C82.5576 3.07215 83.6362 2.15226 83.8823 0.931227C83.9406 0.641989 84.1742 0.400391 84.4693 0.400391H89.2769C89.2774 0.400391 89.2778 0.400828 89.2778 0.401367C89.2781 1.87639 90.4737 3.0722 91.9487 3.07227C93.2423 3.07227 94.3208 2.15234 94.5669 0.931229C94.6252 0.641989 94.8588 0.400391 95.1539 0.400391H99.4282C99.7232 0.400391 99.9568 0.64199 100.015 0.931226C100.261 2.15219 101.34 3.07204 102.633 3.07227C104.108 3.07227 105.305 1.87643 105.305 0.401367C105.305 0.400828 105.306 0.400391 105.306 0.400391H110.647C110.648 0.400391 110.648 0.400828 110.648 0.401367C110.648 1.87643 111.844 3.07227 113.319 3.07227C114.612 3.0722 115.691 2.1523 115.937 0.931229C115.995 0.64199 116.229 0.400391 116.524 0.400391H118.867C119.162 0.400391 119.401 0.639581 119.401 0.934637V38.8661C119.401 39.1612 119.162 39.4004 118.867 39.4004H116.524C116.229 39.4004 115.995 39.1589 115.937 38.8697C115.691 37.6489 114.612 36.7296 113.319 36.7295C112.025 36.7295 110.947 37.6489 110.701 38.8697C110.642 39.1589 110.409 39.4004 110.114 39.4004H105.839C105.544 39.4004 105.311 39.1589 105.252 38.8697C105.006 37.6489 103.927 36.7295 102.633 36.7295C101.34 36.7297 100.262 37.649 100.015 38.8697C99.9569 39.1589 99.7233 39.4004 99.4283 39.4004H95.1538C94.8587 39.4004 94.6251 39.1589 94.5668 38.8697C94.3205 37.6489 93.2421 36.7295 91.9487 36.7295C90.6554 36.7296 89.577 37.6489 89.3307 38.8697C89.2723 39.1589 89.0387 39.4004 88.7437 39.4004H84.4692C84.1742 39.4004 83.9406 39.1589 83.8822 38.8697C83.6359 37.649 82.5574 36.7296 81.2642 36.7295C79.9708 36.7295 78.8916 37.6489 78.6451 38.8697C78.5868 39.1589 78.3532 39.4004 78.0582 39.4004H73.7846C73.4896 39.4004 73.256 39.1589 73.1976 38.8697C72.9511 37.6489 71.872 36.7295 70.5786 36.7295C69.2854 36.7297 68.2069 37.649 67.9606 38.8697C67.9022 39.1589 67.6686 39.4004 67.3736 39.4004H63.0991C62.8041 39.4004 62.5705 39.1589 62.5121 38.8697C62.2658 37.6489 61.1874 36.7295 59.894 36.7295C58.6007 36.7295 57.5223 37.6489 57.276 38.8697C57.2176 39.1589 56.984 39.4004 56.689 39.4004H52.4145C52.1195 39.4004 51.8859 39.1589 51.8275 38.8697C51.5812 37.649 50.5027 36.7297 49.2095 36.7295C47.9161 36.7295 46.8369 37.6489 46.5905 38.8697C46.5321 39.1589 46.2985 39.4004 46.0035 39.4004H41.7299C41.4349 39.4004 41.2013 39.1589 41.1429 38.8697C40.8965 37.6489 39.8173 36.7295 38.5239 36.7295C37.2307 36.7296 36.1522 37.649 35.9059 38.8697C35.8475 39.1589 35.6139 39.4004 35.3189 39.4004H31.0444C30.7494 39.4004 30.5158 39.1589 30.4574 38.8697C30.2111 37.6489 29.1327 36.7295 27.8394 36.7295C26.546 36.7295 25.4676 37.6489 25.2213 38.8697C25.1629 39.1589 24.9293 39.4004 24.6343 39.4004H20.3598C20.0648 39.4004 19.8312 39.1589 19.7728 38.8697C19.5265 37.649 18.4479 36.7297 17.1548 36.7295C15.8614 36.7295 14.7823 37.6489 14.5358 38.8697C14.4774 39.1589 14.2438 39.4004 13.9488 39.4004H9.67427C9.37926 39.4004 9.14566 39.1589 9.08731 38.8697C8.84102 37.6489 7.7626 36.7295 6.46924 36.7295C5.17594 36.7296 4.09748 37.6489 3.85117 38.8697C3.79282 39.1589 3.55922 39.4004 3.26421 39.4004H0.935126C0.640069 39.4004 0.400879 39.1612 0.400879 38.8661V0.93464C0.400879 0.639583 0.640069 0.400391 0.935126 0.400391H3.26409Z" fill="#B4B4B4"/>
<path d="M6.46924 3.07227L6.46922 3.47295H6.46924V3.07227ZM17.1548 3.07227L17.1548 3.47295L17.1549 3.47295L17.1548 3.07227ZM19.812 0.673828L20.2106 0.714283L20.2117 0.70408L20.2122 0.693837L19.812 0.673828ZM27.8394 3.07227L27.8394 3.47295L27.8394 3.47295L27.8394 3.07227ZM38.5239 3.07227L38.5239 3.47295H38.5239V3.07227ZM41.1812 0.673828L41.5798 0.714294L41.5808 0.704796L41.5813 0.695263L41.1812 0.673828ZM49.2095 3.07227L49.2095 3.47295L49.2095 3.47295L49.2095 3.07227ZM51.8804 0.401367L52.2811 0.401439V0.401367H51.8804ZM57.2231 0.401367L56.8225 0.401367L56.8225 0.401439L57.2231 0.401367ZM59.894 3.07227L59.894 3.47295H59.894V3.07227ZM70.5786 3.07227L70.5786 3.47295H70.5786V3.07227ZM73.2505 0.401367L73.6512 0.401439V0.401367H73.2505ZM81.2642 3.07227L81.2642 3.47295L81.2642 3.47295L81.2642 3.07227ZM89.2778 0.401367L88.8771 0.401367L88.8771 0.401439L89.2778 0.401367ZM91.9487 3.07227L91.9487 3.47295H91.9487V3.07227ZM102.633 3.07227L102.633 3.47295H102.633V3.07227ZM105.305 0.401367L105.706 0.401438V0.401367H105.305ZM110.648 0.401367L110.247 0.401367L110.247 0.401438L110.648 0.401367ZM113.319 3.07227L113.319 3.47295L113.319 3.47295L113.319 3.07227ZM113.319 36.7295L113.319 36.3288H113.319V36.7295ZM102.633 36.7295L102.633 36.3288L102.633 36.3288L102.633 36.7295ZM91.9487 36.7295L91.9487 36.3288L91.9487 36.3288L91.9487 36.7295ZM81.2642 36.7295L81.2642 36.3288H81.2642V36.7295ZM70.5786 36.7295L70.5786 36.3288L70.5786 36.3288L70.5786 36.7295ZM59.894 36.7295L59.894 36.3288L59.894 36.3288L59.894 36.7295ZM49.2095 36.7295L49.2095 36.3288H49.2095V36.7295ZM38.5239 36.7295V36.3288L38.5239 36.3288L38.5239 36.7295ZM27.8394 36.7295L27.8394 36.3288H27.8394V36.7295ZM17.1548 36.7295L17.1549 36.3288H17.1548V36.7295ZM6.46924 36.7295L6.46924 36.3288L6.46922 36.3288L6.46924 36.7295ZM19.7728 38.8697L19.3801 38.9489L19.7728 38.8697ZM30.4574 38.8697L30.8502 38.7904L30.4574 38.8697ZM35.9059 38.8697L35.5131 38.7904L35.9059 38.8697ZM46.5905 38.8697L46.1977 38.7904L46.5905 38.8697ZM62.5121 38.8697L62.9049 38.7904L62.5121 38.8697ZM73.1976 38.8697L73.5904 38.7904L73.1976 38.8697ZM83.8822 38.8697L84.275 38.7904L83.8822 38.8697ZM89.3307 38.8697L88.9379 38.7904L89.3307 38.8697ZM100.015 38.8697L100.408 38.949L100.015 38.8697ZM105.252 38.8697L104.86 38.949L105.252 38.8697ZM110.701 38.8697L111.094 38.9489L110.701 38.8697ZM115.937 38.8697L115.544 38.9489L115.937 38.8697ZM3.85117 38.8697L3.4584 38.7904L3.85117 38.8697ZM83.8823 0.931227L83.4895 0.852049L83.8823 0.931227ZM25.2213 38.8697L24.8285 38.7904L25.2213 38.8697ZM67.9605 0.931227L67.5677 1.01041L67.9605 0.931227ZM62.5122 0.931229L62.905 1.01039L62.5122 0.931229ZM100.015 0.931226L100.408 0.852035L100.015 0.931226ZM67.9606 38.8697L67.5678 38.7904L67.9606 38.8697ZM35.9058 0.931228L36.2985 0.85205L35.9058 0.931228ZM94.5669 0.931229L94.9597 1.01039L94.5669 0.931229ZM30.4575 0.931228L30.0647 0.852058L30.4575 0.931228ZM115.937 0.931229L116.33 1.0104L115.937 0.931229ZM41.1429 38.8697L40.7502 38.949L41.1429 38.8697ZM51.8275 38.8697L52.2203 38.7904L51.8275 38.8697ZM46.5904 0.931224L46.1976 1.01044L46.5904 0.931224ZM9.08731 38.8697L9.48009 38.7904L9.08731 38.8697ZM78.6451 0.931224L78.2523 1.01044L78.6451 0.931224ZM14.5357 0.931224L14.1429 1.01044L14.5357 0.931224ZM78.6451 38.8697L79.0379 38.949L78.6451 38.8697ZM25.2212 0.931229L24.8284 1.01039L25.2212 0.931229ZM57.276 38.8697L57.6687 38.9489L57.276 38.8697ZM94.5668 38.8697L94.9596 38.7904L94.5668 38.8697ZM9.08741 0.931229L8.69462 0.852065L9.08741 0.931229ZM3.85107 0.931228L3.45829 1.0104C3.74133 2.41466 4.98112 3.47288 6.46922 3.47295L6.46924 3.07227L6.46926 2.67158C5.37041 2.67153 4.45306 1.88994 4.24386 0.852057L3.85107 0.931228ZM6.46924 3.07227V3.47295C7.95743 3.47295 9.19717 2.41469 9.4802 1.01039L9.08741 0.931229L8.69462 0.852065C8.48544 1.88999 7.56812 2.67158 6.46924 2.67158V3.07227ZM9.67438 0.400391V0.801076H13.9487V0.400391V-0.000294447H9.67438V0.400391ZM14.5357 0.931224L14.1429 1.01044C14.4262 2.41482 15.6667 3.47295 17.1548 3.47295V3.07227V2.67158C16.0558 2.67158 15.1378 1.88986 14.9285 0.852004L14.5357 0.931224ZM17.1548 3.07227L17.1549 3.47295C18.7454 3.47267 20.0534 2.26369 20.2106 0.714283L19.812 0.673828L19.4134 0.633373C19.2972 1.77781 18.33 2.67137 17.1547 2.67158L17.1548 3.07227ZM20.0995 0.400391V0.801076H24.6342V0.400391V-0.000294447H20.0995V0.400391ZM25.2212 0.931229L24.8284 1.01039C25.1114 2.41469 26.3512 3.47295 27.8394 3.47295V3.07227V2.67158C26.7405 2.67158 25.8232 1.88999 25.614 0.852065L25.2212 0.931229ZM27.8394 3.07227L27.8394 3.47295C29.3275 3.47289 30.5673 2.41466 30.8503 1.0104L30.4575 0.931228L30.0647 0.852058C29.8555 1.88995 28.9382 2.67153 27.8393 2.67158L27.8394 3.07227ZM31.0445 0.400391V0.801076H35.3188V0.400391V-0.000294447H31.0445V0.400391ZM35.9058 0.931228L35.513 1.01041C35.796 2.41463 37.0359 3.47282 38.5239 3.47295L38.5239 3.07227L38.524 2.67158C37.4251 2.67148 36.5078 1.88989 36.2985 0.85205L35.9058 0.931228ZM38.5239 3.07227V3.47295C40.1148 3.47295 41.4225 2.26374 41.5798 0.714294L41.1812 0.673828L40.7825 0.633363C40.6663 1.77801 39.6992 2.67158 38.5239 2.67158V3.07227ZM41.4696 0.400391V0.801076H46.0034V0.400391V-0.000294447H41.4696V0.400391ZM46.5904 0.931224L46.1976 1.01044C46.4808 2.41482 47.7214 3.47295 49.2095 3.47295V3.07227V2.67158C48.1105 2.67158 47.1925 1.88986 46.9831 0.852004L46.5904 0.931224ZM49.2095 3.07227L49.2095 3.47295C50.9057 3.47272 52.2808 2.09759 52.2811 0.401439L51.8804 0.401367L51.4797 0.401296C51.4795 1.65501 50.4631 2.67141 49.2094 2.67158L49.2095 3.07227ZM51.8813 0.400391V0.801076H57.2222V0.400391V-0.000294447H51.8813V0.400391ZM57.2231 0.401367L56.8225 0.401439C56.8228 2.09766 58.1976 3.47295 59.894 3.47295L59.894 3.07227L59.894 2.67158C58.6403 2.67158 57.6241 1.65519 57.6238 0.401296L57.2231 0.401367ZM59.894 3.07227V3.47295C61.3822 3.47295 62.622 2.41469 62.905 1.01039L62.5122 0.931229L62.1194 0.852065C61.9102 1.88999 60.9929 2.67158 59.894 2.67158V3.07227ZM63.0992 0.400391V0.801076H67.3735V0.400391V-0.000294447H63.0992V0.400391ZM67.9605 0.931227L67.5677 1.01041C67.8508 2.41461 69.0906 3.47275 70.5786 3.47295L70.5786 3.07227L70.5787 2.67158C69.4799 2.67143 68.5625 1.88984 68.3532 0.852042L67.9605 0.931227ZM70.5786 3.07227V3.47295C72.2749 3.47295 73.6509 2.09785 73.6512 0.401439L73.2505 0.401367L72.8498 0.401296C72.8496 1.655 71.8326 2.67158 70.5786 2.67158V3.07227ZM73.2515 0.400391V0.801076H78.058V0.400391V-0.000294447H73.2515V0.400391ZM78.6451 0.931224L78.2523 1.01044C78.5355 2.41482 79.7761 3.47295 81.2642 3.47295V3.07227V2.67158C80.1652 2.67158 79.2472 1.88986 79.0378 0.852004L78.6451 0.931224ZM81.2642 3.07227L81.2642 3.47295C82.7522 3.47281 83.992 2.41463 84.2751 1.01041L83.8823 0.931227L83.4895 0.852049C83.2803 1.88989 82.3629 2.67148 81.2641 2.67158L81.2642 3.07227ZM84.4693 0.400391V0.801076H89.2769V0.400391V-0.000294447H84.4693V0.400391ZM89.2778 0.401367L88.8771 0.401439C88.8774 2.09764 90.2523 3.47288 91.9487 3.47295L91.9487 3.07227L91.9487 2.67158C90.695 2.67153 89.6787 1.65513 89.6785 0.401296L89.2778 0.401367ZM91.9487 3.07227V3.47295C93.4369 3.47295 94.6767 2.41469 94.9597 1.01039L94.5669 0.931229L94.1741 0.852065C93.9649 1.88999 93.0476 2.67158 91.9487 2.67158V3.07227ZM95.1539 0.400391V0.801076H99.4282V0.400391V-0.000294447H95.1539V0.400391ZM100.015 0.931226L99.6224 1.01042C99.9055 2.41458 101.145 3.47269 102.633 3.47295L102.633 3.07227L102.633 2.67158C101.535 2.67139 100.617 1.8898 100.408 0.852035L100.015 0.931226ZM102.633 3.07227V3.47295C104.33 3.47295 105.706 2.09785 105.706 0.401438L105.305 0.401367L104.904 0.401296C104.904 1.655 103.887 2.67158 102.633 2.67158V3.07227ZM105.306 0.400391V0.801076H110.647V0.400391V-0.000294447H105.306V0.400391ZM110.648 0.401367L110.247 0.401438C110.248 2.09766 111.622 3.47295 113.319 3.47295V3.07227V2.67158C112.065 2.67158 111.049 1.65519 111.049 0.401296L110.648 0.401367ZM113.319 3.07227L113.319 3.47295C114.807 3.47288 116.047 2.41466 116.33 1.0104L115.937 0.931229L115.544 0.852057C115.335 1.88994 114.418 2.67153 113.319 2.67158L113.319 3.07227ZM116.524 0.400391V0.801076H118.867V0.400391V-0.000294447H116.524V0.400391ZM119.401 0.934637H119V38.8661H119.401H119.802V0.934637H119.401ZM118.867 39.4004V38.9997H116.524V39.4004V39.8011H118.867V39.4004ZM115.937 38.8697L116.33 38.7904C116.046 37.3865 114.807 36.3289 113.319 36.3288L113.319 36.7295L113.319 37.1302C114.418 37.1302 115.335 37.9114 115.544 38.9489L115.937 38.8697ZM113.319 36.7295V36.3288C111.831 36.3288 110.591 37.3864 110.308 38.7904L110.701 38.8697L111.094 38.9489C111.303 37.9113 112.22 37.1302 113.319 37.1302V36.7295ZM110.114 39.4004V38.9997H105.839V39.4004V39.8011H110.114V39.4004ZM105.252 38.8697L105.645 38.7904C105.362 37.3863 104.121 36.3288 102.633 36.3288V36.7295V37.1302C103.732 37.1302 104.65 37.9115 104.86 38.949L105.252 38.8697ZM102.633 36.7295L102.633 36.3288C101.146 36.3291 99.9058 37.3865 99.6225 38.7904L100.015 38.8697L100.408 38.949C100.617 37.9115 101.535 37.1304 102.633 37.1302L102.633 36.7295ZM99.4283 39.4004V38.9997H95.1538V39.4004V39.8011H99.4283V39.4004ZM94.5668 38.8697L94.9596 38.7904C94.6763 37.3864 93.4367 36.3288 91.9487 36.3288V36.7295V37.1302C93.0475 37.1302 93.9647 37.9113 94.174 38.9489L94.5668 38.8697ZM91.9487 36.7295L91.9487 36.3288C90.4609 36.3289 89.2212 37.3865 88.9379 38.7904L89.3307 38.8697L89.7234 38.9489C89.9328 37.9114 90.85 37.1302 91.9487 37.1302L91.9487 36.7295ZM88.7437 39.4004V38.9997H84.4692V39.4004V39.8011H88.7437V39.4004ZM83.8822 38.8697L84.275 38.7904C83.9917 37.3865 82.752 36.3289 81.2642 36.3288L81.2642 36.7295L81.2641 37.1302C82.3629 37.1303 83.2801 37.9114 83.4895 38.9489L83.8822 38.8697ZM81.2642 36.7295V36.3288C79.7764 36.3288 78.5359 37.3863 78.2524 38.7904L78.6451 38.8697L79.0379 38.949C79.2474 37.9115 80.1652 37.1302 81.2642 37.1302V36.7295ZM78.0582 39.4004V38.9997H73.7846V39.4004V39.8011H78.0582V39.4004ZM73.1976 38.8697L73.5904 38.7904C73.3069 37.3863 72.0664 36.3288 70.5786 36.3288V36.7295V37.1302C71.6775 37.1302 72.5954 37.9115 72.8049 38.949L73.1976 38.8697ZM70.5786 36.7295L70.5786 36.3288C69.0909 36.329 67.8511 37.3865 67.5678 38.7904L67.9606 38.8697L68.3533 38.9489C68.5627 37.9115 69.48 37.1303 70.5787 37.1302L70.5786 36.7295ZM67.3736 39.4004V38.9997H63.0991V39.4004V39.8011H67.3736V39.4004ZM62.5121 38.8697L62.9049 38.7904C62.6216 37.3864 61.382 36.3288 59.894 36.3288V36.7295V37.1302C60.9928 37.1302 61.91 37.9113 62.1193 38.9489L62.5121 38.8697ZM59.894 36.7295L59.894 36.3288C58.4061 36.3288 57.1665 37.3864 56.8832 38.7904L57.276 38.8697L57.6687 38.9489C57.8781 37.9113 58.7952 37.1302 59.894 37.1302L59.894 36.7295ZM56.689 39.4004V38.9997H52.4145V39.4004V39.8011H56.689V39.4004ZM51.8275 38.8697L52.2203 38.7904C51.937 37.3865 50.6972 36.329 49.2095 36.3288L49.2095 36.7295L49.2094 37.1302C50.3081 37.1303 51.2254 37.9115 51.4348 38.9489L51.8275 38.8697ZM49.2095 36.7295V36.3288C47.7217 36.3288 46.4812 37.3863 46.1977 38.7904L46.5905 38.8697L46.9832 38.949C47.1927 37.9115 48.1105 37.1302 49.2095 37.1302V36.7295ZM46.0035 39.4004V38.9997H41.7299V39.4004V39.8011H46.0035V39.4004ZM41.1429 38.8697L41.5357 38.7904C41.2522 37.3863 40.0117 36.3288 38.5239 36.3288V36.7295V37.1302C39.6229 37.1302 40.5407 37.9115 40.7502 38.949L41.1429 38.8697ZM38.5239 36.7295L38.5239 36.3288C37.0361 36.3289 35.7964 37.3865 35.5131 38.7904L35.9059 38.8697L36.2986 38.9489C36.508 37.9114 37.4252 37.1303 38.524 37.1302L38.5239 36.7295ZM35.3189 39.4004V38.9997H31.0444V39.4004V39.8011H35.3189V39.4004ZM30.4574 38.8697L30.8502 38.7904C30.5669 37.3864 29.3272 36.3289 27.8394 36.3288L27.8394 36.7295L27.8393 37.1302C28.9381 37.1302 29.8553 37.9114 30.0647 38.9489L30.4574 38.8697ZM27.8394 36.7295V36.3288C26.3514 36.3288 25.1118 37.3864 24.8285 38.7904L25.2213 38.8697L25.6141 38.9489C25.8234 37.9113 26.7406 37.1302 27.8394 37.1302V36.7295ZM24.6343 39.4004V38.9997H20.3598V39.4004V39.8011H24.6343V39.4004ZM19.7728 38.8697L20.1656 38.7904C19.8823 37.3865 18.6425 36.3291 17.1549 36.3288L17.1548 36.7295L17.1547 37.1302C18.2534 37.1304 19.1707 37.9115 19.3801 38.9489L19.7728 38.8697ZM17.1548 36.7295V36.3288C15.667 36.3288 14.4265 37.3863 14.143 38.7904L14.5358 38.8697L14.9285 38.949C15.138 37.9115 16.0559 37.1302 17.1548 37.1302V36.7295ZM13.9488 39.4004V38.9997H9.67427V39.4004V39.8011H13.9488V39.4004ZM9.08731 38.8697L9.48009 38.7904C9.19683 37.3864 7.95716 36.3288 6.46924 36.3288V36.7295V37.1302C7.56804 37.1302 8.48521 37.9113 8.69454 38.9489L9.08731 38.8697ZM6.46924 36.7295L6.46922 36.3288C4.98139 36.3289 3.74168 37.3865 3.4584 38.7904L3.85117 38.8697L4.24394 38.9489C4.45328 37.9114 5.37049 37.1302 6.46926 37.1302L6.46924 36.7295ZM3.26421 39.4004V38.9997H0.935126V39.4004V39.8011H3.26421V39.4004ZM0.400879 38.8661H0.801564V0.93464H0.400879H0.000193834V38.8661H0.400879ZM0.935126 0.400391V0.801076H3.26409V0.400391V-0.000294447H0.935126V0.400391ZM0.400879 0.93464H0.801564C0.801564 0.860873 0.861364 0.801076 0.935126 0.801076V0.400391V-0.000294447C0.418775 -0.000294447 0.000193834 0.418294 0.000193834 0.93464H0.400879ZM20.3598 39.4004V38.9997C20.3268 38.9997 20.29 38.9872 20.2522 38.9517C20.2124 38.9143 20.179 38.8569 20.1656 38.7904L19.7728 38.8697L19.3801 38.9489C19.4663 39.3763 19.8283 39.8011 20.3598 39.8011V39.4004ZM31.0444 39.4004V38.9997C31.0113 38.9997 30.9745 38.9872 30.9368 38.9517C30.897 38.9143 30.8636 38.8569 30.8502 38.7904L30.4574 38.8697L30.0647 38.9489C30.1509 39.3763 30.5129 39.8011 31.0444 39.8011V39.4004ZM35.9059 38.8697L35.5131 38.7904C35.4997 38.8569 35.4663 38.9143 35.4265 38.9517C35.3887 38.9872 35.352 38.9997 35.3189 38.9997V39.4004V39.8011C35.8504 39.8011 36.2124 39.3763 36.2986 38.9489L35.9059 38.8697ZM46.5905 38.8697L46.1977 38.7904C46.1843 38.8569 46.1509 38.9143 46.1111 38.9517C46.0733 38.9872 46.0365 38.9997 46.0035 38.9997V39.4004V39.8011C46.535 39.8011 46.8969 39.3763 46.9832 38.949L46.5905 38.8697ZM63.0991 39.4004V38.9997C63.066 38.9997 63.0292 38.9872 62.9915 38.9517C62.9517 38.9143 62.9183 38.8569 62.9049 38.7904L62.5121 38.8697L62.1193 38.9489C62.2056 39.3763 62.5676 39.8011 63.0991 39.8011V39.4004ZM73.7846 39.4004V38.9997C73.7516 38.9997 73.7148 38.9872 73.677 38.9517C73.6372 38.9143 73.6038 38.8569 73.5904 38.7904L73.1976 38.8697L72.8049 38.949C72.8911 39.3763 73.2531 39.8011 73.7846 39.8011V39.4004ZM84.4692 39.4004V38.9997C84.4361 38.9997 84.3993 38.9872 84.3616 38.9517C84.3218 38.9143 84.2884 38.8569 84.275 38.7904L83.8822 38.8697L83.4895 38.9489C83.5757 39.3763 83.9377 39.8011 84.4692 39.8011V39.4004ZM89.3307 38.8697L88.9379 38.7904C88.9245 38.8569 88.8911 38.9143 88.8513 38.9517C88.8135 38.9872 88.7768 38.9997 88.7437 38.9997V39.4004V39.8011C89.2752 39.8011 89.6372 39.3763 89.7234 38.9489L89.3307 38.8697ZM100.015 38.8697L99.6225 38.7904C99.6091 38.8569 99.5757 38.9143 99.5359 38.9517C99.4981 38.9872 99.4613 38.9997 99.4283 38.9997V39.4004V39.8011C99.9598 39.8011 100.322 39.3763 100.408 38.949L100.015 38.8697ZM105.839 39.4004V38.9997C105.806 38.9997 105.769 38.9872 105.732 38.9517C105.692 38.9143 105.658 38.8569 105.645 38.7904L105.252 38.8697L104.86 38.949C104.946 39.3763 105.308 39.8011 105.839 39.8011V39.4004ZM110.701 38.8697L110.308 38.7904C110.295 38.8569 110.261 38.9143 110.221 38.9517C110.184 38.9872 110.147 38.9997 110.114 38.9997V39.4004V39.8011C110.645 39.8011 111.007 39.3763 111.094 38.9489L110.701 38.8697ZM116.524 39.4004V38.9997C116.491 38.9997 116.454 38.9872 116.416 38.9517C116.377 38.9143 116.343 38.8569 116.33 38.7904L115.937 38.8697L115.544 38.9489C115.63 39.3763 115.992 39.8011 116.524 39.8011V39.4004ZM119.401 38.8661H119C119 38.9399 118.94 38.9997 118.867 38.9997V39.4004V39.8011C119.383 39.8011 119.802 39.3825 119.802 38.8661H119.401ZM3.85117 38.8697L3.4584 38.7904C3.44499 38.8569 3.41158 38.9143 3.37183 38.9517C3.33405 38.9872 3.29727 38.9997 3.26421 38.9997V39.4004V39.8011C3.79569 39.8011 4.15771 39.3763 4.24394 38.9489L3.85117 38.8697ZM83.8823 0.931227L84.2751 1.01041C84.2885 0.943935 84.3219 0.886526 84.3617 0.849105C84.3995 0.81354 84.4362 0.801076 84.4693 0.801076V0.400391V-0.000294447C83.9377 -0.000294447 83.5757 0.424601 83.4895 0.852049L83.8823 0.931227ZM25.2213 38.8697L24.8285 38.7904C24.8151 38.8569 24.7817 38.9143 24.7419 38.9517C24.7042 38.9872 24.6674 38.9997 24.6343 38.9997V39.4004V39.8011C25.1658 39.8011 25.5278 39.3763 25.6141 38.9489L25.2213 38.8697ZM67.3735 0.400391V0.801076C67.4065 0.801076 67.4433 0.81354 67.4811 0.849106C67.5209 0.886528 67.5543 0.943939 67.5677 1.01041L67.9605 0.931227L68.3532 0.852042C68.2671 0.424601 67.905 -0.000294447 67.3735 -0.000294447V0.400391ZM62.5122 0.931229L62.905 1.01039C62.9184 0.943927 62.9518 0.886522 62.9916 0.849104C63.0293 0.81354 63.0661 0.801076 63.0992 0.801076V0.400391V-0.000294447C62.5676 -0.000294447 62.2056 0.424601 62.1194 0.852065L62.5122 0.931229ZM99.4282 0.400391V0.801076C99.4612 0.801076 99.498 0.81354 99.5358 0.849107C99.5756 0.88653 99.609 0.943942 99.6224 1.01042L100.015 0.931226L100.408 0.852035C100.322 0.424602 99.9597 -0.000294447 99.4282 -0.000294447V0.400391ZM67.9606 38.8697L67.5678 38.7904C67.5544 38.8569 67.521 38.9143 67.4812 38.9517C67.4434 38.9872 67.4066 38.9997 67.3736 38.9997V39.4004V39.8011C67.9051 39.8011 68.2671 39.3763 68.3533 38.9489L67.9606 38.8697ZM35.3188 0.400391V0.801076C35.3518 0.801076 35.3886 0.81354 35.4264 0.849105C35.4662 0.886526 35.4996 0.943935 35.513 1.01041L35.9058 0.931228L36.2985 0.85205C36.2124 0.424601 35.8503 -0.000294447 35.3188 -0.000294447V0.400391ZM94.5669 0.931229L94.9597 1.01039C94.9731 0.943927 95.0065 0.886522 95.0462 0.849104C95.084 0.81354 95.1208 0.801076 95.1539 0.801076V0.400391V-0.000294447C94.6223 -0.000294447 94.2603 0.424601 94.1741 0.852065L94.5669 0.931229ZM30.4575 0.931228L30.8503 1.0104C30.8637 0.943931 30.8971 0.886524 30.9369 0.849104C30.9746 0.81354 31.0114 0.801076 31.0445 0.801076V0.400391V-0.000294447C30.5129 -0.000294447 30.1509 0.424601 30.0647 0.852058L30.4575 0.931228ZM115.937 0.931229L116.33 1.0104C116.343 0.943932 116.377 0.886524 116.416 0.849105C116.454 0.81354 116.491 0.801076 116.524 0.801076V0.400391V-0.000294447C115.992 -0.000294447 115.63 0.424602 115.544 0.852057L115.937 0.931229ZM41.7299 39.4004V38.9997C41.6969 38.9997 41.6601 38.9872 41.6223 38.9517C41.5825 38.9143 41.5491 38.8569 41.5357 38.7904L41.1429 38.8697L40.7502 38.949C40.8365 39.3763 41.1984 39.8011 41.7299 39.8011V39.4004ZM51.8804 0.401367H52.2811C52.2811 0.62212 52.1021 0.801076 51.8813 0.801076V0.400391V-0.000294447C51.6595 -0.000294447 51.4797 0.179536 51.4797 0.401367H51.8804ZM0.935126 39.4004V38.9997C0.861362 38.9997 0.801564 38.9399 0.801564 38.8661H0.400879H0.000193834C0.000193834 39.3825 0.418777 39.8011 0.935126 39.8011V39.4004ZM89.2769 0.400391V0.801076C89.0562 0.801076 88.8771 0.622193 88.8771 0.401367H89.2778H89.6785C89.6785 0.179463 89.4986 -0.000294447 89.2769 -0.000294447V0.400391ZM19.812 0.673828L20.2122 0.693837C20.2092 0.75391 20.1596 0.801076 20.0995 0.801076V0.400391V-0.000294447C19.7326 -0.000294447 19.4301 0.287396 19.4118 0.653819L19.812 0.673828ZM110.647 0.400391V0.801076C110.426 0.801076 110.247 0.622193 110.247 0.401367H110.648H111.049C111.049 0.179463 110.869 -0.000294447 110.647 -0.000294447V0.400391ZM52.4145 39.4004V38.9997C52.3814 38.9997 52.3447 38.9872 52.3069 38.9517C52.2671 38.9143 52.2337 38.8569 52.2203 38.7904L51.8275 38.8697L51.4348 38.9489C51.521 39.3763 51.883 39.8011 52.4145 39.8011V39.4004ZM46.0034 0.400391V0.801076C46.0364 0.801076 46.0732 0.813539 46.111 0.849111C46.1508 0.886538 46.1842 0.943959 46.1976 1.01044L46.5904 0.931224L46.9831 0.852004C46.8969 0.424604 46.5349 -0.000294447 46.0034 -0.000294447V0.400391ZM9.67427 39.4004V38.9997C9.64121 38.9997 9.60442 38.9872 9.56665 38.9517C9.5269 38.9143 9.49349 38.8569 9.48009 38.7904L9.08731 38.8697L8.69454 38.9489C8.78077 39.3763 9.14279 39.8011 9.67427 39.8011V39.4004ZM78.058 0.400391V0.801076C78.0911 0.801076 78.1279 0.813539 78.1657 0.849111C78.2054 0.886538 78.2389 0.943959 78.2523 1.01044L78.6451 0.931224L79.0378 0.852004C78.9516 0.424604 78.5896 -0.000294447 78.058 -0.000294447V0.400391ZM13.9487 0.400391V0.801076C13.9817 0.801076 14.0185 0.813539 14.0563 0.849111C14.0961 0.886538 14.1295 0.943959 14.1429 1.01044L14.5357 0.931224L14.9285 0.852004C14.8422 0.424604 14.4802 -0.000294447 13.9487 -0.000294447V0.400391ZM118.867 0.400391V0.801076C118.94 0.801076 119 0.860873 119 0.934637H119.401H119.802C119.802 0.418289 119.383 -0.000294447 118.867 -0.000294447V0.400391ZM57.2222 0.400391V0.801076C57.0015 0.801076 56.8225 0.622193 56.8225 0.401367H57.2231H57.6238C57.6238 0.179463 57.4439 -0.000294447 57.2222 -0.000294447V0.400391ZM78.6451 38.8697L78.2524 38.7904C78.239 38.8569 78.2055 38.9143 78.1658 38.9517C78.128 38.9872 78.0912 38.9997 78.0582 38.9997V39.4004V39.8011C78.5896 39.8011 78.9516 39.3763 79.0379 38.949L78.6451 38.8697ZM24.6342 0.400391V0.801076C24.6673 0.801076 24.7041 0.81354 24.7418 0.849104C24.7816 0.886522 24.815 0.943927 24.8284 1.01039L25.2212 0.931229L25.614 0.852065C25.5278 0.4246 25.1658 -0.000294447 24.6342 -0.000294447V0.400391ZM105.305 0.401367H105.706C105.706 0.62212 105.527 0.801076 105.306 0.801076V0.400391V-0.000294447C105.084 -0.000294447 104.904 0.179536 104.904 0.401367H105.305ZM57.276 38.8697L56.8832 38.7904C56.8698 38.8569 56.8364 38.9143 56.7966 38.9517C56.7589 38.9872 56.7221 38.9997 56.689 38.9997V39.4004V39.8011C57.2205 39.8011 57.5825 39.3763 57.6687 38.9489L57.276 38.8697ZM41.1812 0.673828L41.5813 0.695263C41.5781 0.754595 41.529 0.801076 41.4696 0.801076V0.400391V-0.000294447C41.1031 -0.000294447 40.8006 0.28641 40.781 0.652394L41.1812 0.673828ZM14.5358 38.8697L14.143 38.7904C14.1296 38.8569 14.0962 38.9143 14.0564 38.9517C14.0186 38.9872 13.9818 38.9997 13.9488 38.9997V39.4004V39.8011C14.4803 39.8011 14.8423 39.3763 14.9285 38.949L14.5358 38.8697ZM73.2505 0.401367H73.6512C73.6512 0.62212 73.4722 0.801076 73.2515 0.801076V0.400391V-0.000294447C73.0296 -0.000294447 72.8498 0.179536 72.8498 0.401367H73.2505ZM95.1538 39.4004V38.9997C95.1207 38.9997 95.0839 38.9872 95.0461 38.9517C95.0064 38.9143 94.973 38.8569 94.9596 38.7904L94.5668 38.8697L94.174 38.9489C94.2603 39.3763 94.6223 39.8011 95.1538 39.8011V39.4004ZM9.08741 0.931229L9.4802 1.01039C9.49359 0.943927 9.527 0.886522 9.56675 0.849104C9.60453 0.81354 9.64132 0.801076 9.67438 0.801076V0.400391V-0.000294447C9.14282 -0.000294447 8.78078 0.424601 8.69462 0.852065L9.08741 0.931229ZM3.85107 0.931228L4.24386 0.852057C4.1577 0.424601 3.79566 -0.000294447 3.26409 -0.000294447V0.400391V0.801076C3.29716 0.801076 3.33395 0.81354 3.37173 0.849104C3.41148 0.886524 3.44489 0.943931 3.45829 1.0104L3.85107 0.931228Z" fill="#B4B4B4"/>
</svg>
