<svg preserveAspectRatio="none" width="100%" height="100%" overflow="visible" style="display: block;" viewBox="0 0 24 24" fill="none" xmlns="http://www.w3.org/2000/svg">
<g id="Icon Container">
<path id="pin-icon" d="M9.08759 13.9599L5.52375 17.5237M11.1777 8.30591L10.1944 9.28927C10.1142 9.36949 10.0741 9.40959 10.0284 9.44146C9.98781 9.46975 9.94406 9.49316 9.89802 9.51122C9.84616 9.53156 9.79054 9.54269 9.6793 9.56493L7.37067 10.0267C6.77072 10.1467 6.47074 10.2066 6.3304 10.3648C6.20814 10.5026 6.15231 10.687 6.17761 10.8695C6.20664 11.0789 6.42296 11.2952 6.85559 11.7279L11.3196 16.1919C11.7523 16.6245 11.9686 16.8409 12.178 16.8699C12.3605 16.8952 12.5449 16.8394 12.6827 16.7171C12.8408 16.5768 12.9008 16.2768 13.0208 15.6768L13.4826 13.3682C13.5048 13.257 13.5159 13.2013 13.5363 13.1495C13.5543 13.1034 13.5777 13.0597 13.606 13.0191C13.6379 12.9734 13.678 12.9333 13.7582 12.8531L14.7416 11.8697C14.7929 11.8185 14.8185 11.7928 14.8467 11.7704C14.8717 11.7505 14.8983 11.7326 14.926 11.7167C14.9573 11.6989 14.9906 11.6846 15.0573 11.656L16.6287 10.9825C17.0872 10.786 17.3164 10.6878 17.4205 10.5291C17.5116 10.3902 17.5442 10.2211 17.5112 10.0584C17.4735 9.8723 17.2971 9.69595 16.9444 9.34326L13.7042 6.10306C13.3515 5.75037 13.1752 5.57402 12.9891 5.5363C12.8264 5.50332 12.6573 5.5359 12.5184 5.62695C12.3597 5.73108 12.2614 5.9603 12.065 6.41876L11.3915 7.99021C11.3629 8.05688 11.3486 8.09021 11.3308 8.12146C11.3149 8.14923 11.297 8.17575 11.2771 8.20079C11.2547 8.22898 11.229 8.25462 11.1777 8.30591Z" stroke="var(--stroke-0, black)" stroke-width="1.26001" stroke-linecap="round" stroke-linejoin="round"/>
</g>
</svg>
